<?xml version="1.0" encoding="UTF-8" standalone="no"?>
<svg
   xmlns:dc="http://purl.org/dc/elements/1.1/"
   xmlns:cc="http://creativecommons.org/ns#"
   xmlns:rdf="http://www.w3.org/1999/02/22-rdf-syntax-ns#"
   xmlns:svg="http://www.w3.org/2000/svg"
   xmlns="http://www.w3.org/2000/svg"
   xmlns:xlink="http://www.w3.org/1999/xlink"
   id="svg8"
   version="1.1"
   viewBox="0 0 183.066 105.914"
   height="333.587"
   width="576.586">
  <metadata
     id="metadata58">
    <rdf:RDF>
      <cc:Work
         rdf:about="">
        <dc:format>image/svg+xml</dc:format>
        <dc:type
           rdf:resource="http://purl.org/dc/dcmitype/StillImage" />
        <dc:title></dc:title>
      </cc:Work>
    </rdf:RDF>
  </metadata>
  <style
     id="style4733">
        .class1{fill-opacity:1;fill:#fff;stroke:none}
    </style>
  <defs
     id="defs2">
    <linearGradient
       id="linearGradient4795">
      <stop
         style="stop-color:#fff03b;stop-opacity:1"
         offset="0"
         id="stop4791" />
      <stop
         style="stop-color:#ecb100;stop-opacity:1"
         offset="1"
         id="stop4793" />
    </linearGradient>
    <radialGradient
       gradientUnits="userSpaceOnUse"
       gradientTransform="matrix(-1.7822261,0.34871475,-0.13674553,-0.69888482,247.85732,65.257569)"
       r="91.533501"
       fy="66.440346"
       fx="60.91394"
       cy="66.440346"
       cx="60.91394"
       id="radialGradient4770"
       xlink:href="#linearGradient4795" />
  </defs>
  <g
     style="fill:url(#radialGradient4770);fill-opacity:1"
     id="g4762">
    <path
       d="m 0.001,38.895 v -9.42 c 0,0 4.53,-25.9 26.735,-25.9 h 1.75 v 6.24 h 14.896 v 4.926 h -15.77 c 0,0 -11.838,1.784 -13.587,14.3 v 9.854 z"
       id="path30"
       class="class1"
       style="fill:url(#radialGradient4770);fill-opacity:1;stroke:none" />
    <path
       id="path32"
       d="M 29.36,38.896 H 43.384 V 21.454 H 29.36 Z"
       class="class1"
       style="fill:url(#radialGradient4770);fill-opacity:1;stroke:none" />
    <path
       id="path34"
       d="M 29.36,20.537 H 43.384 V 15.653 H 29.36 Z"
       class="class1"
       style="fill:url(#radialGradient4770);fill-opacity:1;stroke:none" />
    <path
       id="path36"
       d="M 29.36,8.938 H 43.384 V 3.576 H 29.36 Z"
       class="class1"
       style="fill:url(#radialGradient4770);fill-opacity:1;stroke:none" />
    <path
       d="M 32.419,2.66 V 0.436 L 32.855,0 h 6.993 l 0.436,0.436 V 2.66 Z"
       id="path40"
       class="class1"
       style="fill:url(#radialGradient4770);fill-opacity:1;stroke:none" />
    <path
       d="M 17.957,38.895 V 36.63 l 0.437,-0.44 h 7.031 l 0.44,0.44 v 2.265 z"
       id="path44"
       class="class1"
       style="fill:url(#radialGradient4770);fill-opacity:1;stroke:none" />
    <path
       id="path46"
       d="m 0,39.769 h 43.381 v 5.36 H 0.001 Z"
       class="class1"
       style="fill:url(#radialGradient4770);fill-opacity:1;stroke:none" />
    <path
       id="path48"
       d="m 0,46.039 h 43.381 v 5.362 H 0.001 Z"
       class="class1"
       style="fill:url(#radialGradient4770);fill-opacity:1;stroke:none" />
    <path
       d="M 113.425,2.66 V 0.436 L 113.862,0 h 7.028 l 0.44,0.436 V 2.66 Z"
       id="path52"
       class="class1"
       style="fill:url(#radialGradient4770);fill-opacity:1;stroke:none" />
    <path
       d="M 98.961,2.66 V 0.436 L 99.398,0 h 7.034 l 0.439,0.436 V 2.66 Z"
       id="path56"
       class="class1"
       style="fill:url(#radialGradient4770);fill-opacity:1;stroke:none" />
    <path
       d="M 128.321,2.66 V 0.436 L 128.758,0 h 6.995 l 0.43,0.436 V 2.66 Z"
       id="path60"
       class="class1"
       style="fill:url(#radialGradient4770);fill-opacity:1;stroke:none" />
    <path
       id="path62"
       d="m 95.465,3.576 h 43.386 V 8.938 H 95.465 Z"
       class="class1"
       style="fill:url(#radialGradient4770);fill-opacity:1;stroke:none" />
    <path
       id="path64"
       d="m 95.465,9.814 h 43.386 v 5.362 H 95.465 Z"
       class="class1"
       style="fill:url(#radialGradient4770);fill-opacity:1;stroke:none" />
    <path
       id="path66"
       d="M 0,52.336 H 14.024 V 69.3 H 0 Z"
       class="class1"
       style="fill:url(#radialGradient4770);fill-opacity:1;stroke:none" />
    <path
       id="path68"
       d="M 29.36,52.336 H 43.384 V 69.3 H 29.36 Z"
       class="class1"
       style="fill:url(#radialGradient4770);fill-opacity:1;stroke:none" />
    <path
       d="m 95.027,38.895 v -9.42 c 0,0 -4.53,-25.9 -26.694,-25.9 h -1.752 v 6.24 H 51.685 v 4.926 h 15.772 c 0,0 11.8,1.784 13.59,14.3 v 9.854 z"
       id="path72"
       class="class1"
       style="fill:url(#radialGradient4770);fill-opacity:1;stroke:none" />
    <path
       id="path74"
       d="M 65.71,38.896 H 51.686 V 21.454 H 65.71 Z"
       class="class1"
       style="fill:url(#radialGradient4770);fill-opacity:1;stroke:none" />
    <path
       id="path76"
       d="M 65.71,20.537 H 51.686 V 15.653 H 65.71 Z"
       class="class1"
       style="fill:url(#radialGradient4770);fill-opacity:1;stroke:none" />
    <path
       id="path78"
       d="M 65.71,8.938 H 51.686 V 3.576 H 65.71 Z"
       class="class1"
       style="fill:url(#radialGradient4770);fill-opacity:1;stroke:none" />
    <path
       d="M 62.651,2.66 V 0.436 L 62.215,0 h -7.031 l -0.44,0.436 V 2.66 Z"
       id="path82"
       class="class1"
       style="fill:url(#radialGradient4770);fill-opacity:1;stroke:none" />
    <path
       d="M 77.072,38.895 V 36.63 l -0.436,-0.44 h -6.993 l -0.437,0.44 v 2.265 z"
       id="path86"
       class="class1"
       style="fill:url(#radialGradient4770);fill-opacity:1;stroke:none" />
    <path
       id="path88"
       d="M 95.025,39.769 H 51.683 v 5.36 h 43.342 z"
       class="class1"
       style="fill:url(#radialGradient4770);fill-opacity:1;stroke:none" />
    <path
       id="path90"
       d="M 80.167,46.039 H 51.683 v 5.362 h 28.484 z"
       class="class1"
       style="fill:url(#radialGradient4770);fill-opacity:1;stroke:none" />
    <path
       d="m 139.721,38.895 v -9.42 c 0,0 4.488,-25.9 26.702,-25.9 h 1.746 v 6.24 h 14.898 v 4.926 h -15.78 c 0,0 -11.832,1.784 -13.584,14.3 v 9.854 z"
       id="path94"
       class="class1"
       style="fill:url(#radialGradient4770);fill-opacity:1;stroke:none" />
    <path
       id="path96"
       d="m 169.04,8.938 h 14.026 V 3.576 H 169.04 Z"
       class="class1"
       style="fill:url(#radialGradient4770);fill-opacity:1;stroke:none" />
    <path
       d="M 172.103,2.66 V 0.436 L 172.534,0 h 7.034 l 0.44,0.436 V 2.66 Z"
       id="path100"
       class="class1"
       style="fill:url(#radialGradient4770);fill-opacity:1;stroke:none" />
    <path
       d="M 157.637,38.895 V 36.63 l 0.479,-0.44 h 6.995 l 0.43,0.44 v 2.265 z"
       id="path104"
       class="class1"
       style="fill:url(#radialGradient4770);fill-opacity:1;stroke:none" />
    <path
       d="m 157.637,56.772 v -2.265 l 0.479,-0.442 h 6.995 l 0.43,0.442 v 2.265 z"
       id="path108"
       class="class1"
       style="fill:url(#radialGradient4770);fill-opacity:1;stroke:none" />
    <path
       d="m 172.103,56.772 v -2.265 l 0.431,-0.442 h 7.034 l 0.44,0.442 v 2.265 z"
       id="path112"
       class="class1"
       style="fill:url(#radialGradient4770);fill-opacity:1;stroke:none" />
    <path
       id="path114"
       d="m 139.721,63.995 h 43.346 v 5.361 h -43.346 z"
       class="class1"
       style="fill:url(#radialGradient4770);fill-opacity:1;stroke:none" />
    <path
       id="path116"
       d="m 139.721,46.039 h 13.983 v 16.965 h -13.983 z"
       class="class1"
       style="fill:url(#radialGradient4770);fill-opacity:1;stroke:none" />
    <path
       id="path118"
       d="m 168.17,39.769 h -28.449 v 5.36 h 28.449 z"
       class="class1"
       style="fill:url(#radialGradient4770);fill-opacity:1;stroke:none" />
    <path
       id="path120"
       d="M 183.067,57.642 H 154.58 v 5.362 h 28.486 z"
       class="class1"
       style="fill:url(#radialGradient4770);fill-opacity:1;stroke:none" />
    <path
       id="path122"
       d="M 65.71,52.153 H 51.686 V 69.117 H 65.71 Z"
       class="class1"
       style="fill:url(#radialGradient4770);fill-opacity:1;stroke:none" />
    <path
       id="path124"
       d="m 124.394,51.841 h -14.033 v 16.964 h 14.033 z"
       class="class1"
       style="fill:url(#radialGradient4770);fill-opacity:1;stroke:none" />
    <path
       id="path126"
       d="m 124.394,33.968 h -14.033 v 16.961 h 14.033 z"
       class="class1"
       style="fill:url(#radialGradient4770);fill-opacity:1;stroke:none" />
    <path
       id="path128"
       d="m 124.394,16.092 h -14.033 v 16.962 h 14.033 z"
       class="class1"
       style="fill:url(#radialGradient4770);fill-opacity:1;stroke:none" />
    <path
       d="m 81.047,46.444 v 5.807 H 66.584 v 4.925 h 14.463 v 12.039 h 13.98 V 59.4 c 0,0 -0.87,-13.112 -13.98,-12.956"
       id="path132"
       class="class1"
       style="fill:url(#radialGradient4770);fill-opacity:1;stroke:none" />
    <path
       id="path1014"
       d="m 20.337,85.284 2.743,1.52 q -1.176,3.92 -3.283,5.977 -3.332,3.185 -8.134,3.185 -4.851,0 -8.281,-3.332 Q 0,89.254 0,84.451 0,79.6 3.333,76.268 q 3.332,-3.381 8.183,-3.381 6.615,0 10.29,6.615 L 7.645,88.763 5.93,85.921 16.76,78.669 q -1.765,-2.254 -5.293,-2.254 -3.136,0 -5.292,2.254 -2.107,2.205 -2.107,5.439 0,3.43 2.303,5.88 2.352,2.45 5.635,2.45 4.067,0 6.468,-3.185 1.176,-1.568 1.862,-3.969 z"
       class="class1"
       style="fill:url(#radialGradient4770);fill-opacity:1;stroke:none" />
    <path
       id="path1016"
       d="M 56.5,95.525 H 52.58 V 82.246 q 0,-2.597 -1.275,-4.067 -1.274,-1.47 -3.528,-1.47 -3.087,0 -4.312,2.89 -0.441,0.98 -0.441,3.382 v 12.544 h -3.92 V 82.589 q 0,-2.744 -1.078,-4.116 -1.421,-1.764 -3.773,-1.764 -2.548,0 -3.92,2.058 -0.833,1.225 -0.833,4.018 v 12.74 H 25.58 V 82.197 q 0,-4.46 2.057,-6.713 2.353,-2.597 6.322,-2.597 4.753,0 7.154,4.116 2.401,-4.116 6.958,-4.116 4.263,0 6.664,2.989 1.765,2.205 1.765,5.929 z"
       class="class1"
       style="fill:url(#radialGradient4770);fill-opacity:1;stroke:none" />
    <path
       id="path1018"
       d="m 71.984,105.914 v -20.58 q 0,-5.342 3.038,-8.674 3.43,-3.773 8.527,-3.773 4.9,0 8.28,3.38 3.382,3.382 3.382,8.282 0,4.655 -3.332,8.036 -3.332,3.381 -7.938,3.381 -3.43,0 -6.42,-2.4 v -4.215 q 3.038,2.793 6.077,2.793 3.185,0 5.34,-2.205 2.206,-2.254 2.206,-5.537 0,-3.185 -2.205,-5.44 -2.156,-2.253 -5.292,-2.253 -3.872,0 -6.224,3.234 -1.519,2.107 -1.519,6.174 v 19.797 z"
       class="class1"
       style="fill:url(#radialGradient4770);fill-opacity:1;stroke:none" />
    <path
       id="path1020"
       d="m 117.752,85.284 2.744,1.52 q -1.176,3.92 -3.283,5.977 -3.332,3.185 -8.134,3.185 -4.852,0 -8.282,-3.332 -3.38,-3.38 -3.38,-8.183 0,-4.851 3.331,-8.183 3.332,-3.381 8.184,-3.381 6.615,0 10.29,6.615 l -14.162,9.261 -1.715,-2.842 10.83,-7.252 q -1.764,-2.254 -5.292,-2.254 -3.137,0 -5.293,2.254 -2.107,2.205 -2.107,5.439 0,3.43 2.303,5.88 2.352,2.45 5.636,2.45 4.067,0 6.468,-3.185 1.176,-1.568 1.862,-3.969 z"
       class="class1"
       style="fill:url(#radialGradient4770);fill-opacity:1;stroke:none" />
    <path
       id="path1022"
       d="m 134.167,95.525 -1.127,2.647 q 3.529,0.392 3.529,3.283 0,1.568 -1.177,2.548 -1.127,0.98 -2.94,0.98 -1.42,0 -3.136,-0.735 l 0.392,-1.716 q 1.225,0.54 2.401,0.54 1.813,0 1.813,-1.716 0,-1.617 -1.862,-1.617 -0.44,0 -1.176,0.245 l -0.392,-0.343 1.715,-4.165 q -4.36,-0.54 -6.909,-3.038 -3.332,-3.283 -3.332,-7.939 0,-5.145 3.92,-8.575 2.94,-2.548 7.938,-2.548 h 3.186 v 3.43 h -2.304 q -3.969,0 -6.32,2.107 -2.353,2.107 -2.353,5.635 0,3.724 2.695,5.832 2.205,1.715 5.88,1.715 h 2.402 v 3.43 z"
       class="class1"
       style="fill:url(#radialGradient4770);fill-opacity:1;stroke:none" />
    <path
       id="path1024"
       d="m 162.099,95.525 h -3.92 v -9.702 q 0,-4.214 -2.059,-6.664 -2.058,-2.45 -5.586,-2.45 -3.136,0 -5.341,2.303 -2.205,2.254 -2.205,5.439 0,3.185 2.205,5.44 2.205,2.204 5.341,2.204 3.038,0 6.076,-2.646 v 4.116 q -2.94,2.401 -6.419,2.401 -4.704,0 -7.987,-3.332 -3.283,-3.38 -3.283,-8.183 0,-4.753 3.43,-8.134 3.43,-3.43 8.232,-3.43 4.95,0 8.232,3.479 3.284,3.479 3.284,8.673 z"
       class="class1"
       style="fill:url(#radialGradient4770);fill-opacity:1;stroke:none" />
    <path
       id="path1026"
       d="m 165.279,95.525 v -3.43 h 8.722 q 3.038,0 3.773,-0.343 1.225,-0.588 1.225,-2.107 0,-1.666 -2.009,-2.352 l -8.281,-2.891 q -4.312,-1.52 -4.312,-5.292 0,-5.734 8.134,-5.734 h 8.87 v 3.43 h -9.458 q -3.626,0 -3.626,2.402 0,1.568 2.058,2.303 l 7.791,2.744 q 2.646,0.93 3.773,2.205 1.127,1.274 1.127,3.381 0,2.597 -1.96,4.263 -1.715,1.421 -5.439,1.421 z"
       class="class1"
       style="fill:url(#radialGradient4770);fill-opacity:1;stroke:none" />
  </g>
</svg>
