<svg xmlns="http://www.w3.org/2000/svg" xmlns:xlink="http://www.w3.org/1999/xlink" width="576.586" height="333.587" viewBox="0 0 183.066 105.914" version="1.1" id="svg8">
    <style id="style4733">
        .class1{fill-opacity:1;fill:#fff;stroke:none}
    </style>
    <defs id="defs2">
        <radialGradient xlink:href="#linearGradient4612" id="radialGradient4616" cx="51.484" cy="121.67" fx="51.484" fy="121.67" r="91.533" gradientTransform="matrix(-1.4369 .22823 -.19332 -1.2171 174.455 268.372)" gradientUnits="userSpaceOnUse"/>
        <linearGradient id="linearGradient4612">
            <stop offset="0" id="stop4608" stop-color="#ffee39" stop-opacity="1"/>
            <stop offset="1" id="stop4610" stop-color="#eaaf00" stop-opacity="1"/>
        </linearGradient>
    </defs>
    <g transform="translate(54.567 -101.528)" id="layer1">
        <g id="g4573" fill="url(#radialGradient4616)" fill-opacity="1">
            <path d="M-54.566 140.423v-9.42s4.53-25.9 26.735-25.9h1.75v6.24h14.896v4.926h-15.77s-11.838 1.784-13.587 14.3v9.854z" id="path30" class="class1" fill="url(#radialGradient4616)" fill-opacity="1" stroke="none"/>
            <path id="path32" d="M-25.207 140.424h14.024v-17.442h-14.024z" class="class1" fill="url(#radialGradient4616)" fill-opacity="1" stroke="none"/>
            <path id="path34" d="M-25.207 122.065h14.024v-4.884h-14.024z" class="class1" fill="url(#radialGradient4616)" fill-opacity="1" stroke="none"/>
            <path id="path36" d="M-25.207 110.466h14.024v-5.362h-14.024z" class="class1" fill="url(#radialGradient4616)" fill-opacity="1" stroke="none"/>
            <path d="M-22.148 104.188v-2.224l.436-.436h6.993l.436.436v2.224z" id="path40" class="class1" fill="url(#radialGradient4616)" fill-opacity="1" stroke="none"/>
            <path d="M-36.61 140.423v-2.265l.437-.44h7.031l.44.44v2.265z" id="path44" class="class1" fill="url(#radialGradient4616)" fill-opacity="1" stroke="none"/>
            <path id="path46" d="M-54.567 141.297h43.381v5.36h-43.38z" class="class1" fill="url(#radialGradient4616)" fill-opacity="1" stroke="none"/>
            <path id="path48" d="M-54.567 147.567h43.381v5.362h-43.38z" class="class1" fill="url(#radialGradient4616)" fill-opacity="1" stroke="none"/>
            <path d="M58.858 104.188v-2.224l.437-.436h7.028l.44.436v2.224z" id="path52" class="class1" fill="url(#radialGradient4616)" fill-opacity="1" stroke="none"/>
            <path d="M44.394 104.188v-2.224l.437-.436h7.034l.439.436v2.224z" id="path56" class="class1" fill="url(#radialGradient4616)" fill-opacity="1" stroke="none"/>
            <path d="M73.754 104.188v-2.224l.437-.436h6.995l.43.436v2.224z" id="path60" class="class1" fill="url(#radialGradient4616)" fill-opacity="1" stroke="none"/>
            <path id="path62" d="M40.898 105.104h43.386v5.362H40.898z" class="class1" fill="url(#radialGradient4616)" fill-opacity="1" stroke="none"/>
            <path id="path64" d="M40.898 111.342h43.386v5.362H40.898z" class="class1" fill="url(#radialGradient4616)" fill-opacity="1" stroke="none"/>
            <path id="path66" d="M-54.567 153.864h14.024v16.964h-14.024z" class="class1" fill="url(#radialGradient4616)" fill-opacity="1" stroke="none"/>
            <path id="path68" d="M-25.207 153.864h14.024v16.964h-14.024z" class="class1" fill="url(#radialGradient4616)" fill-opacity="1" stroke="none"/>
            <path d="M40.46 140.423v-9.42s-4.53-25.9-26.694-25.9h-1.752v6.24H-2.882v4.926H12.89s11.8 1.784 13.59 14.3v9.854z" id="path72" class="class1" fill="url(#radialGradient4616)" fill-opacity="1" stroke="none"/>
            <path id="path74" d="M11.143 140.424H-2.881v-17.442h14.024z" class="class1" fill="url(#radialGradient4616)" fill-opacity="1" stroke="none"/>
            <path id="path76" d="M11.143 122.065H-2.881v-4.884h14.024z" class="class1" fill="url(#radialGradient4616)" fill-opacity="1" stroke="none"/>
            <path id="path78" d="M11.143 110.466H-2.881v-5.362h14.024z" class="class1" fill="url(#radialGradient4616)" fill-opacity="1" stroke="none"/>
            <path d="M8.084 104.188v-2.224l-.436-.436H.617l-.44.436v2.224z" id="path82" class="class1" fill="url(#radialGradient4616)" fill-opacity="1" stroke="none"/>
            <path d="M22.505 140.423v-2.265l-.436-.44h-6.993l-.437.44v2.265z" id="path86" class="class1" fill="url(#radialGradient4616)" fill-opacity="1" stroke="none"/>
            <path id="path88" d="M40.458 141.297H-2.884v5.36h43.342z" class="class1" fill="url(#radialGradient4616)" fill-opacity="1" stroke="none"/>
            <path id="path90" d="M25.6 147.567H-2.884v5.362H25.6z" class="class1" fill="url(#radialGradient4616)" fill-opacity="1" stroke="none"/>
            <path d="M85.154 140.423v-9.42s4.488-25.9 26.702-25.9h1.746v6.24H128.5v4.926h-15.78s-11.832 1.784-13.584 14.3v9.854z" id="path94" class="class1" fill="url(#radialGradient4616)" fill-opacity="1" stroke="none"/>
            <path id="path96" d="M114.473 110.466h14.026v-5.362h-14.026z" class="class1" fill="url(#radialGradient4616)" fill-opacity="1" stroke="none"/>
            <path d="M117.536 104.188v-2.224l.431-.436h7.034l.44.436v2.224z" id="path100" class="class1" fill="url(#radialGradient4616)" fill-opacity="1" stroke="none"/>
            <path d="M103.07 140.423v-2.265l.479-.44h6.995l.43.44v2.265z" id="path104" class="class1" fill="url(#radialGradient4616)" fill-opacity="1" stroke="none"/>
            <path d="M103.07 158.3v-2.265l.479-.442h6.995l.43.442v2.265z" id="path108" class="class1" fill="url(#radialGradient4616)" fill-opacity="1" stroke="none"/>
            <path d="M117.536 158.3v-2.265l.431-.442h7.034l.44.442v2.265z" id="path112" class="class1" fill="url(#radialGradient4616)" fill-opacity="1" stroke="none"/>
            <path id="path114" d="M85.154 165.523H128.5v5.361H85.154z" class="class1" fill="url(#radialGradient4616)" fill-opacity="1" stroke="none"/>
            <path id="path116" d="M85.154 147.567h13.983v16.965H85.154z" class="class1" fill="url(#radialGradient4616)" fill-opacity="1" stroke="none"/>
            <path id="path118" d="M113.603 141.297H85.154v5.36h28.449z" class="class1" fill="url(#radialGradient4616)" fill-opacity="1" stroke="none"/>
            <path id="path120" d="M128.5 159.17h-28.487v5.362h28.486z" class="class1" fill="url(#radialGradient4616)" fill-opacity="1" stroke="none"/>
            <path id="path122" d="M11.143 153.681H-2.881v16.964h14.024z" class="class1" fill="url(#radialGradient4616)" fill-opacity="1" stroke="none"/>
            <path id="path124" d="M69.827 153.369H55.794v16.964h14.033z" class="class1" fill="url(#radialGradient4616)" fill-opacity="1" stroke="none"/>
            <path id="path126" d="M69.827 135.496H55.794v16.961h14.033z" class="class1" fill="url(#radialGradient4616)" fill-opacity="1" stroke="none"/>
            <path id="path128" d="M69.827 117.62H55.794v16.962h14.033z" class="class1" fill="url(#radialGradient4616)" fill-opacity="1" stroke="none"/>
            <path d="M26.48 147.972v5.807H12.017v4.925H26.48v12.039h13.98v-9.815s-.87-13.112-13.98-12.956" id="path132" class="class1" fill="url(#radialGradient4616)" fill-opacity="1" stroke="none"/>
            <path id="path1014" d="M-34.23 186.812l2.743 1.52q-1.176 3.92-3.283 5.977-3.332 3.185-8.134 3.185-4.851 0-8.281-3.332-3.382-3.38-3.382-8.183 0-4.851 3.333-8.183 3.332-3.381 8.183-3.381 6.615 0 10.29 6.615l-14.161 9.261-1.715-2.842 10.83-7.252q-1.765-2.254-5.293-2.254-3.136 0-5.292 2.254-2.107 2.205-2.107 5.439 0 3.43 2.303 5.88 2.352 2.45 5.635 2.45 4.067 0 6.468-3.185 1.176-1.568 1.862-3.969z" class="class1" fill="url(#radialGradient4616)" fill-opacity="1" stroke="none"/>
            <path id="path1016" d="M1.933 197.053h-3.92v-13.279q0-2.597-1.275-4.067-1.274-1.47-3.528-1.47-3.087 0-4.312 2.89-.441.98-.441 3.382v12.544h-3.92v-12.936q0-2.744-1.078-4.116-1.421-1.764-3.773-1.764-2.548 0-3.92 2.058-.833 1.225-.833 4.018v12.74h-3.92v-13.328q0-4.46 2.057-6.713 2.353-2.597 6.322-2.597 4.753 0 7.154 4.116 2.401-4.116 6.958-4.116 4.263 0 6.664 2.989 1.765 2.205 1.765 5.929z" class="class1" fill="url(#radialGradient4616)" fill-opacity="1" stroke="none"/>
            <path id="path1018" d="M17.417 207.442v-20.58q0-5.342 3.038-8.674 3.43-3.773 8.527-3.773 4.9 0 8.28 3.38 3.382 3.382 3.382 8.282 0 4.655-3.332 8.036-3.332 3.381-7.938 3.381-3.43 0-6.42-2.4v-4.215q3.038 2.793 6.077 2.793 3.185 0 5.34-2.205 2.206-2.254 2.206-5.537 0-3.185-2.205-5.44-2.156-2.253-5.292-2.253-3.872 0-6.224 3.234-1.519 2.107-1.519 6.174v19.797z" class="class1" fill="url(#radialGradient4616)" fill-opacity="1" stroke="none"/>
            <path id="path1020" d="M63.185 186.812l2.744 1.52q-1.176 3.92-3.283 5.977-3.332 3.185-8.134 3.185-4.852 0-8.282-3.332-3.38-3.38-3.38-8.183 0-4.851 3.331-8.183 3.332-3.381 8.184-3.381 6.615 0 10.29 6.615l-14.162 9.261-1.715-2.842 10.83-7.252q-1.764-2.254-5.292-2.254-3.137 0-5.293 2.254-2.107 2.205-2.107 5.439 0 3.43 2.303 5.88 2.352 2.45 5.636 2.45 4.067 0 6.468-3.185 1.176-1.568 1.862-3.969z" class="class1" fill="url(#radialGradient4616)" fill-opacity="1" stroke="none"/>
            <path id="path1022" d="M79.6 197.053l-1.127 2.647q3.529.392 3.529 3.283 0 1.568-1.177 2.548-1.127.98-2.94.98-1.42 0-3.136-.735l.392-1.716q1.225.54 2.401.54 1.813 0 1.813-1.716 0-1.617-1.862-1.617-.44 0-1.176.245l-.392-.343 1.715-4.165q-4.36-.54-6.909-3.038-3.332-3.283-3.332-7.939 0-5.145 3.92-8.575 2.94-2.548 7.938-2.548h3.186v3.43h-2.304q-3.969 0-6.32 2.107-2.353 2.107-2.353 5.635 0 3.724 2.695 5.832 2.205 1.715 5.88 1.715h2.402v3.43z" class="class1" fill="url(#radialGradient4616)" fill-opacity="1" stroke="none"/>
            <path id="path1024" d="M107.532 197.053h-3.92v-9.702q0-4.214-2.059-6.664-2.058-2.45-5.586-2.45-3.136 0-5.341 2.303-2.205 2.254-2.205 5.439t2.205 5.44q2.205 2.204 5.341 2.204 3.038 0 6.076-2.646v4.116q-2.94 2.401-6.419 2.401-4.704 0-7.987-3.332-3.283-3.38-3.283-8.183 0-4.753 3.43-8.134 3.43-3.43 8.232-3.43 4.95 0 8.232 3.479 3.284 3.479 3.284 8.673z" class="class1" fill="url(#radialGradient4616)" fill-opacity="1" stroke="none"/>
            <path id="path1026" d="M110.712 197.053v-3.43h8.722q3.038 0 3.773-.343 1.225-.588 1.225-2.107 0-1.666-2.009-2.352l-8.281-2.891q-4.312-1.52-4.312-5.292 0-5.734 8.134-5.734h8.87v3.43h-9.458q-3.626 0-3.626 2.402 0 1.568 2.058 2.303l7.791 2.744q2.646.93 3.773 2.205 1.127 1.274 1.127 3.381 0 2.597-1.96 4.263-1.715 1.421-5.439 1.421z" class="class1" fill="url(#radialGradient4616)" fill-opacity="1" stroke="none"/>
        </g>
    </g>
</svg>
