<svg xmlns="http://www.w3.org/2000/svg" xml:space="preserve" view-box="0 0 841.89 595.28">
    <linearGradient id="a" gradientUnits="userSpaceOnUse" x1="99.387" y1="64.685" x2="829.145" y2="341.94">
        <stop offset=".016" style="stop-color:#eaaf03"/>
        <stop offset=".518" style="stop-color:#f6ea4c"/>
        <stop offset=".947" style="stop-color:#eaaf03"/>
    </linearGradient>
    <path fill-rule="evenodd" clip-rule="evenodd" fill="url(#a)" d="M55.723 195.627h54.037v-37.265c6.752-47.42 52.351-54.198 52.351-54.198H222.9V85.53h-57.414V61.82h-6.75c-85.56 0-103.013 98.244-103.013 98.244v35.563zm113.137 0h54.04v-66.053h-54.04v66.053zm0-88.074v18.633h54.04v-18.633h-54.04zm0-25.412h54.04V61.82h-54.04v20.321zm11.828-23.711h30.396v-8.479l-1.688-1.688h-27.019l-1.689 1.688v8.479zm-55.725 137.197h30.395v-8.464l-1.689-1.703H126.65l-1.688 1.703v8.464zm-69.24 3.392v20.322H222.9v-20.322H55.723zm0 23.709v20.334H222.9v-20.334H55.723zM493.077 58.43h30.394v-8.479l-1.688-1.688h-27.019l-1.688 1.688v8.479zm-55.728 0h30.397v-8.479l-1.688-1.688H439.04l-1.691 1.688v8.479zm113.141 0h30.393v-8.479l-1.687-1.688h-27.019l-1.688 1.688v8.479zm-126.644 3.39v20.321h167.178V61.82H423.846zm0 23.71v20.321h167.178V85.53H423.846zM55.723 246.599v64.366h54.037v-64.366H55.723zm113.137 0v64.366h54.04v-64.366h-54.04zm253.297-50.972v-35.563S404.703 61.82 319.147 61.82h-6.752v23.71h-57.413v18.634h60.789s45.598 6.778 52.349 54.198v37.265h54.037zm-113.136 0v-66.053h-54.038v66.053h54.038zm0-88.074h-54.038v18.633h54.038v-18.633zm0-25.412V61.82h-54.038v20.321h54.038zM297.204 58.43v-8.479l-1.687-1.688h-27.02l-1.687 1.688v8.479h30.394zm55.726 137.197v-8.464l-1.701-1.703h-27.006l-1.687 1.703v8.464h30.394zm69.227 3.392H254.982v20.322h167.175v-20.322zm-57.411 23.709H254.982v20.334h109.763v-20.334zm229.653-27.101h54.039v-37.265c6.751-47.42 52.336-54.198 52.336-54.198h60.79V85.53h-57.398V61.82h-6.767c-85.558 0-103 98.244-103 98.244v35.563zM707.54 82.141h54.024V61.82H707.54v20.321zm11.815-23.711h30.394v-8.479l-1.688-1.688h-27.019l-1.687 1.688v8.479zm-55.727 137.197h30.396v-8.464l-1.688-1.703h-27.019l-1.689 1.703v8.464zm0 67.756h30.396v-8.465l-1.688-1.702h-27.019l-1.689 1.702v8.465zm55.727 0h30.394v-8.465l-1.688-1.702h-27.019l-1.687 1.702v8.465zm-124.956 27.26v20.322h167.165v-20.322H594.399zm0-67.915v64.367h54.039v-64.367h-54.039zm109.767-23.709H594.399v20.322h109.767v-20.322zm57.398 67.755H651.815v20.32h109.749v-20.32zm-452.543-20.791h-54.038v64.364h54.038v-64.364zm226.277-1.233h-54.037v64.367h54.037V244.75zm0-67.754h-54.037v64.365h54.037v-64.365zm0-67.756h-54.037v64.366h54.037V109.24zM368.12 223.959v22.024h-55.725v18.632h55.725v45.732h54.037v-37.252s-3.373-49.698-54.037-49.136z"/>
    <linearGradient id="b" gradientUnits="userSpaceOnUse" x1="408.703" y1="330.151" x2="408.703" y2="468.954">
        <stop offset=".016" style="stop-color:#eaaf03"/>
        <stop offset=".518" style="stop-color:#f6ea4c"/>
        <stop offset=".947" style="stop-color:#eaaf03"/>
    </linearGradient>
    <path fill-rule="evenodd" clip-rule="evenodd" fill="url(#b)" d="M109.412 349.465H64.657c-2.867 0-5.171.775-6.925 2.329-1.755 1.542-2.625 3.283-2.625 5.199v87.431c0 1.93.87 3.659 2.625 5.213 1.754 1.554 4.058 2.316 6.925 2.316h44.755c2.974 0 5.224-.763 6.765-2.316 1.54-1.554 2.316-3.551 2.316-6.002 0-2.678-.776-4.783-2.316-6.337-1.542-1.538-3.791-2.315-6.765-2.315H73.739v-26.416h23.885c3.082 0 5.397-.777 6.924-2.331 1.542-1.542 2.318-3.551 2.318-6.002 0-2.665-.777-4.783-2.318-6.322-1.527-1.553-3.843-2.33-6.924-2.33H73.739V366.45h35.673c2.974 0 5.224-.776 6.765-2.331 1.54-1.54 2.316-3.549 2.316-6 0-2.667-.776-4.782-2.316-6.324-1.542-1.555-3.791-2.33-6.765-2.33zm83.923 73.514c2.652 0 4.836-.723 6.537-2.17 1.702-1.434 2.975-2.959 3.817-4.567l17.844-37.307v67.099c0 1.916.817 3.656 2.464 5.197 1.648 1.554 3.792 2.331 6.444 2.331 2.975 0 5.318-.777 7.02-2.331 1.687-1.541 2.546-3.281 2.546-5.197v-90.635c0-1.93-.859-3.655-2.546-5.21-1.701-1.541-4.045-2.319-7.02-2.319l-2.545-.159c-2.759-.107-5.037.4-6.845 1.514-1.808 1.123-3.242 2.544-4.301 4.245l-23.415 47.408-23.402-47.408c-.966-1.701-2.344-3.066-4.152-4.085-1.794-1.004-4.087-1.515-6.846-1.515h-2.707c-2.866 0-5.168.778-6.924 2.319-1.754 1.555-2.625 3.28-2.625 5.21v90.635c0 1.916.87 3.656 2.625 5.197 1.756 1.554 4.059 2.331 6.924 2.331 2.76 0 4.972-.777 6.618-2.331 1.634-1.541 2.465-3.281 2.465-5.197v-67.099l17.682 37.307c.951 1.608 2.277 3.134 3.978 4.567 1.703 1.447 3.819 2.17 6.364 2.17zm145.637-57.494h11.789c7.113 0 12.258 1.567 15.445 4.729 3.19 3.147 4.782 7.019 4.782 11.6v3.686c0 1.929-.401 3.79-1.192 5.611-.804 1.81-2.023 3.416-3.67 4.797-1.647 1.393-3.737 2.504-6.283 3.361-2.559.856-5.573 1.286-9.082 1.286h-11.789v-35.07zm-18.634-8.492v88.235c0 1.93.885 3.79 2.626 5.613 1.754 1.81 4.071 2.72 6.939 2.72 2.76 0 4.956-.777 6.604-2.331 1.648-1.541 2.464-3.281 2.464-5.197v-30.1h11.789c7.113 0 13.113-.886 17.991-2.653 4.889-1.755 8.868-4.086 11.948-6.965 3.083-2.882 5.305-6.19 6.685-9.927a33.53 33.53 0 0 0 2.077-11.694v-1.756c0-4.701-.737-9.08-2.224-13.124-1.487-4.062-3.832-7.612-7.019-10.653-3.175-3.038-7.22-5.423-12.097-7.124-4.888-1.715-10.674-2.572-17.36-2.572h-20.856c-2.868 0-5.185.775-6.939 2.329-1.743 1.542-2.628 3.283-2.628 5.199zm151.839-7.528h-44.754c-2.865 0-5.184.775-6.926 2.329-1.754 1.542-2.624 3.283-2.624 5.199v87.431c0 1.93.87 3.659 2.624 5.213 1.742 1.554 4.061 2.316 6.926 2.316h44.754c2.975 0 5.226-.763 6.767-2.316 1.54-1.554 2.305-3.551 2.305-6.002 0-2.678-.765-4.783-2.305-6.337-1.541-1.538-3.792-2.315-6.767-2.315h-35.672v-26.416h23.886c3.08 0 5.384-.777 6.927-2.331 1.54-1.542 2.301-3.551 2.301-6.002 0-2.665-.761-4.783-2.301-6.322-1.543-1.553-3.847-2.33-6.927-2.33h-23.886V366.45h35.672c2.975 0 5.226-.776 6.767-2.331 1.54-1.54 2.305-3.549 2.305-6 0-2.667-.765-4.782-2.305-6.324-1.542-1.555-3.793-2.33-6.767-2.33zm34.644 37.32v27.86c0 5.012.722 9.74 2.156 14.174 1.433 4.433 3.524 8.372 6.28 11.841 2.762 3.485 6.191 6.336 10.275 8.574 4.084 2.237 8.788 3.576 14.094 4.005 1.164 2.13 1.889 4.006 2.156 5.6.266 1.607.188 3.148-.242 4.649-.321 1.179-.857 2.048-1.596 2.638-.734.591-1.674.913-2.784.964-1.111.055-2.329-.106-3.657-.48a28.12 28.12 0 0 1-4.073-1.514c-1.794-.75-3.336-.83-4.607-.242-1.286.576-2.185 1.487-2.718 2.72-.525 1.231-.605 2.586-.228 4.084.36 1.487 1.298 2.722 2.785 3.686 2.974 1.808 6.122 2.853 9.47 3.122 3.349.266 6.431-.108 9.242-1.127 2.814-1.017 5.199-2.585 7.168-4.729 1.956-2.13 3.055-4.688 3.257-7.675.212-2.144.026-4.194-.55-6.176a30.99 30.99 0 0 0-2.318-5.68c6.59-.857 11.924-2.854 16.008-6.001 4.085-3.146 6.134-6.646 6.134-10.489 0-1.821-.506-3.337-1.511-4.568-1.004-1.232-2.572-1.849-4.703-1.849-.952 0-1.797.055-2.545.161a9.713 9.713 0 0 0-2.144.563c-.698.267-1.462.645-2.316 1.124a79.886 79.886 0 0 0-3.029 1.835 21.901 21.901 0 0 1-5.33 2.172c-1.864.481-4.329.722-7.407.722-5.091 0-9.471-1.688-13.143-5.051-3.657-3.361-5.491-8.624-5.491-15.765V385.66c0-7.154 1.834-12.432 5.491-15.846 3.672-3.418 8.052-5.133 13.143-5.133 3.078 0 5.598.375 7.566 1.125a30.874 30.874 0 0 1 5.493 2.72c1.809 1.18 3.401 1.997 4.78 2.477 1.383.484 2.975.725 4.771.725 1.699 0 3.189-.589 4.46-1.756 1.271-1.178 1.915-2.838 1.915-4.968 0-2.238-.722-4.383-2.156-6.404-1.433-2.037-3.442-3.844-6.04-5.451-2.613-1.595-5.654-2.881-9.163-3.845-3.51-.95-7.327-1.435-11.467-1.435-6.054 0-11.411 1.045-16.087 3.121-4.676 2.077-8.602 4.892-11.791 8.414-3.173 3.522-5.571 7.648-7.166 12.403-1.578 4.756-2.382 9.739-2.382 14.978zm112.896 26.898 12.58-39.718 12.258 39.718h-24.838zm53.502 29.471-30.567-88.561c-.536-1.82-1.755-3.39-3.67-4.729-1.902-1.326-4.139-1.996-6.685-1.996-2.652 0-4.916.67-6.765 1.996-1.864 1.339-3.054 2.908-3.591 4.729l-31.213 88.719c-.534 1.808-.185 3.712 1.033 5.681 1.22 1.983 3.268 3.337 6.136 4.086 2.543.642 4.861.43 6.926-.643 2.074-1.072 3.427-2.506 4.059-4.326l5.894-18.729h34.722l5.732 18.567c.536 1.82 1.837 3.27 3.897 4.326 2.078 1.072 4.434 1.286 7.089.643 2.863-.749 4.888-2.104 6.053-4.086 1.164-1.968 1.485-3.868.95-5.677zm56.114 10.408c10.302 0 18.368-2.585 24.208-7.771 5.84-5.167 8.759-12.24 8.759-21.218 0-5.757-1.138-10.461-3.414-14.092-2.292-3.629-5.157-6.645-8.6-9.042-3.456-2.409-7.195-4.406-11.239-6.016a216.807 216.807 0 0 1-11.228-4.795c-3.44-1.606-6.309-3.414-8.599-5.452-2.278-2.023-3.414-4.741-3.414-8.158 0-3.95 1.218-6.965 3.655-9.055 2.438-2.077 5.573-3.122 9.392-3.122 4.461 0 8.023.698 10.673 2.079 2.654 1.392 4.625 2.623 5.896 3.684a26.15 26.15 0 0 0 3.737 2.572c1.327.736 2.839 1.111 4.542 1.111 2.866 0 4.915-.765 6.135-2.318s1.836-3.551 1.836-6.002c0-1.394-.698-3.122-2.077-5.21-1.378-2.077-3.431-4.086-6.136-6.001-2.705-1.93-6.041-3.552-10.033-4.891-3.977-1.326-8.626-1.996-13.932-1.996-5.089 0-9.658.724-13.688 2.159-4.046 1.445-7.438 3.494-10.193 6.161-2.762 2.679-4.892 5.827-6.38 9.455-1.486 3.631-2.225 7.689-2.225 12.164 0 5.561 1.143 10.114 3.418 13.69a31.212 31.212 0 0 0 8.681 8.976 58.095 58.095 0 0 0 11.225 6.001c3.993 1.607 7.73 3.255 11.239 4.971 3.495 1.701 6.389 3.656 8.681 5.84 2.275 2.197 3.415 4.997 3.415 8.412 0 4.06-1.22 7.019-3.656 8.882-2.45 1.876-5.787 2.799-10.034 2.799-3.725 0-7.22-.656-10.515-1.997-3.297-1.339-5.841-2.851-7.649-4.567a31.216 31.216 0 0 0-3.817-2.957c-1.378-.914-2.976-1.409-4.783-1.518-5.518 0-8.278 2.506-8.278 7.516 0 2.251.646 4.275 1.916 6.096 1.272 1.808 2.919 3.443 4.93 4.878a34.932 34.932 0 0 0 6.779 3.763 64.675 64.675 0 0 0 7.554 2.72c2.561.749 4.996 1.313 7.327 1.687 2.342.373 4.299.562 5.892.562z"/>
    <g fill="#F6EA4C">
        <path d="M84.037 533.769v4.289H56.052v-2.179c0-10.758 4.514-15.523 12.361-22.128 3.958-3.268 10.277-8.238 10.277-13.753 0-4.562-2.708-7.625-7.43-7.625-6.111 0-8.75 4.901-9.028 10.213h-5.208c.486-8.307 5.347-14.503 14.305-14.503 7.361 0 12.569 4.426 12.569 11.847 0 7.354-6.111 11.915-11.181 16.409l-3.611 3.2c-4.514 4.017-7.569 7.966-7.847 14.229h22.778zM106.955 539.011c-14.583 0-14.514-19.744-14.514-25.464 0-2.859-1.181-25.464 14.514-25.464 14.444 0 14.513 18.384 14.513 25.464 0 6.808.208 25.464-14.513 25.464zm0-4.289c4.583 0 9.305-3.2 9.305-21.175 0-17.361-4.306-21.174-9.305-21.174-9.861 0-9.306 16.544-9.306 21.174 0 6.264-.139 21.175 9.306 21.175zM158.065 533.769v4.289H130.08v-2.179c0-10.758 4.514-15.523 12.361-22.128 3.958-3.268 10.277-8.238 10.277-13.753 0-4.562-2.708-7.625-7.43-7.625-6.111 0-8.75 4.901-9.028 10.213h-5.208c.486-8.307 5.347-14.503 14.305-14.503 7.361 0 12.569 4.426 12.569 11.847 0 7.354-6.111 11.915-11.181 16.409l-3.611 3.2c-4.514 4.017-7.569 7.966-7.847 14.229h22.778zM183.831 533.769h8.958v4.289h-23.541v-4.289h9.375v-40.646l-9.792 2.928v-3.881l15-4.63v46.229zM250.15 533.769h21.667v4.289h-26.875v-49.021h5.208v44.732zM306.817 493.326h-20.763v17.43h14.93v4.289h-14.93v18.724h21.25v4.289h-26.458v-49.021h25.972v4.289zM328.138 517.837v-4.29h17.013v25.464h-5.208v-4.766c-2.569 3.063-6.389 4.766-10.486 4.766-4.028 0-15.069-.681-15.069-24.374 0-19.404 6.042-26.554 15.764-26.554 8.472 0 12.43 5.855 12.569 13.481h-5.208c.417-4.494-1.805-9.191-7.083-9.191-10.417 0-10.833 14.229-10.833 21.515 0 6.809.347 20.834 10.139 20.834 4.861 0 10.208-3.813 10.208-13.617v-3.268h-11.806zM366.055 488.083c14.583 0 15.347 16.341 15.347 25.464 0 6.536.486 25.464-15.347 25.464-15.417 0-15.347-18.519-15.347-25.464 0-20.493 6.944-25.464 15.347-25.464zm10.138 25.464c0-4.493.694-21.174-10.139-21.174-11.111 0-10.139 18.314-10.139 21.174 0 5.583-.278 21.175 10.139 21.175 5.209 0 10.139-3.405 10.139-21.175z"/>
    </g>
    <g fill="#F6EA4C">
        <path d="M467.597 494.738H446v17.021h16.18v4.29H446v23.421h-5.208v-49.021h26.805v4.289zM476.973 504.814c3.542-1.361 6.806-2.519 10.694-2.519 7.083 0 11.389 5.719 11.389 11.778v15.796c0 3.336.486 6.74 1.598 9.872l-4.861.612-1.319-4.562c-2.5 2.928-5.348 4.426-9.236 4.426-7.083 0-11.041-5.447-11.041-11.915 0-7.013 4.375-13.141 11.875-13.141 2.777 0 5.416.817 7.777 1.771v-3.473c0-4.017-2.5-6.876-6.389-6.876-3.264 0-6.319 1.498-9.306 2.724l-1.181-4.493zm16.875 16.409c-2.223-.953-4.583-1.77-7.083-1.77-5.278 0-7.361 4.493-7.361 9.123 0 3.404 1.806 7.354 5.833 7.354 4.028 0 6.459-3.337 8.611-6.264v-8.443zM517.181 539.47h-5.208v-18.314c0-6.128-.277-12.323-1.666-18.111h4.999l1.181 6.673c2.639-4.289 7.431-7.421 12.639-7.421 5.902 0 8.958 5.311 8.958 11.506v25.668h-5.208V515.3c0-3.473 0-8.715-4.583-8.715-4.931 0-11.111 4.902-11.111 17.702v15.183zM613.918 494.738h-20.764v17.43h14.931v4.289h-14.931v18.724h21.25v4.289h-26.458v-49.021h25.972v4.289zM650.515 503.044l-11.527 36.902h-5.902l-11.527-36.902h5.416l9.028 28.256 9.097-28.256h5.415zM663.572 522.585c.277 10.008 4.86 13.345 10.555 13.345 4.098 0 8.194-1.839 11.598-3.881l2.222 4.562c-4.652 2.042-9.097 3.608-14.235 3.608-10.973 0-15.347-9.26-15.347-18.724 0-9.531 4.514-19.199 15.624-19.199 12.361 0 14.306 13.549 14.306 17.497v2.792h-24.723zm19.513-4.29c-.208-5.991-3.68-11.71-9.514-11.71-5.833 0-8.68 4.357-10.068 11.71h19.582zM702.252 539.47h-5.208v-18.314c0-6.128-.277-12.323-1.666-18.111h4.999l1.181 6.673c2.639-4.289 7.431-7.421 12.639-7.421 5.902 0 8.958 5.311 8.958 11.506v25.668h-5.208V515.3c0-3.473 0-8.715-4.583-8.715-4.931 0-11.111 4.902-11.111 17.702v15.183zM758.434 507.334H745.17V528.1c0 3.54.069 7.83 4.791 7.83 3.958 0 6.389-3.2 7.848-6.4l4.999 1.226c-2.5 5.242-6.735 9.464-12.985 9.464-6.042 0-9.861-2.859-9.861-13.753v-19.132h-7.985v-4.29h7.985V491.88h5.209v11.165h13.264v4.289z"/>
    </g>
    <path fill="#F6EA4C" d="M404.27 469.826c2.386 0 4.716.611 6.99 1.834 2.273 1.222 4.044 2.971 5.313 5.245 1.269 2.275 1.903 4.647 1.903 7.117 0 2.444-.625 4.794-1.875 7.051-1.25 2.256-3.002 4.008-5.256 5.255s-4.612 1.871-7.074 1.871c-2.461 0-4.82-.624-7.074-1.871s-4.01-2.999-5.266-5.255c-1.256-2.257-1.884-4.606-1.884-7.051 0-2.47.637-4.842 1.912-7.117 1.274-2.274 3.049-4.023 5.322-5.245 2.272-1.222 4.602-1.834 6.989-1.834zm0 2.351c-1.997 0-3.94.511-5.831 1.532-1.891 1.021-3.37 2.482-4.437 4.381-1.067 1.899-1.601 3.877-1.601 5.933 0 2.043.524 4.002 1.573 5.875a11.147 11.147 0 0 0 4.399 4.381c1.884 1.047 3.849 1.57 5.896 1.57s4.013-.523 5.897-1.57a11.086 11.086 0 0 0 4.39-4.381c1.042-1.873 1.563-3.832 1.563-5.875 0-2.056-.531-4.033-1.592-5.933-1.062-1.898-2.541-3.359-4.437-4.381-1.896-1.021-3.836-1.532-5.82-1.532zm-6.236 19.685v-15.267h5.256c1.796 0 3.096.141 3.9.423.804.282 1.444.773 1.921 1.476s.716 1.448.716 2.237c0 1.116-.398 2.087-1.196 2.915-.797.827-1.855 1.291-3.174 1.391.54.226.973.495 1.3.809.615.602 1.369 1.611 2.261 3.027l1.865 2.989h-3.014l-1.356-2.406c-1.068-1.893-1.928-3.077-2.581-3.554-.452-.351-1.112-.526-1.978-.526h-1.451v6.486h-2.469zm2.468-8.592h2.995c1.432 0 2.408-.213 2.93-.639.521-.426.782-.99.782-1.692 0-.451-.125-.855-.376-1.213-.251-.357-.6-.623-1.046-.799s-1.271-.264-2.477-.264h-2.807v4.607z"/>
</svg>