<svg preserveAspectRatio="xMidYMid slice" version="1.1" viewBox="0 0 780 1170" xmlns="http://www.w3.org/2000/svg" xmlns:xlink="http://www.w3.org/1999/xlink">
<defs>
<radialGradient id="b" cx="0" cy="0" r="1" gradientTransform="matrix(363.8 0 0 -468.3 301.6 467.3)" gradientUnits="userSpaceOnUse">
<stop style="stop-color:#00a4a4" offset="0"/>
<stop style="stop-color:#004848" offset="1"/>
</radialGradient>
</defs>
<g transform="matrix(1.333 0 0 -1.333 0 1123)">
<path d="m1.831e-6 -35.61h585v877.5h-585z" style="fill:url(#b)"/>
<path id="a" d="m19.2 862.3c-0.675 0.6754-1.243 1.231-1.331 1.289-0.1753 0.1152-0.1751 0.1148-1.573-1.343-0.7689-0.8018-1.56-1.662-1.757-1.912-0.5584-0.7084-1.929-2.184-1.981-2.133-0.02506 0.0251-0.243 0.5631-0.4845 1.196-0.3593 0.9411-0.4863 1.197-0.6998 1.411-0.2453 0.2453-0.2893 0.2603-0.7311 0.2485-0.47-0.0126-0.4702-0.0127-0.7816-0.3616-0.2048-0.2294-0.4006-0.5526-0.572-0.9445-0.295-0.6745-0.741-2.493-0.8616-3.514-0.07347-0.6219-0.2153-1.427-0.3544-2.01-0.05437-0.2276-0.05462-0.2273-0.5584 0.3141-0.4423 0.4753-0.8601 0.8435-1.473 1.299-0.09616 0.0715-0.2052 0.1563-0.2424 0.1889-0.03726 0.0325-0.09231 0.0352-0.1226 5e-3 -0.125-0.125-0.4098-1.15-0.3823-1.376 0.01633-0.1343 0.04218-0.4393 0.05731-0.678 0.01514-0.2386 0.04693-0.6364 0.07089-0.8838 0.02396-0.2475 0.05822-0.6915 0.07616-0.9871 0.01794-0.2956 0.03928-0.6355 0.0475-0.7549 0.0171-0.2481-0.03356-0.2901-0.8948-0.7379-1.145-0.5954-2.328-0.6142-3.189-0.0509-0.389 0.2547-0.9083 0.8392-1.282 1.443-0.3872 0.6253-0.3871 0.6253-0.09464 1.093 0.1608 0.2573 0.4634 0.7079 0.6727 1.001 0.2093 0.2936 0.4473 0.6271 0.5286 0.7413 0.6165 0.8658 0.6884 1.006 0.7986 1.562 0.06228 0.3137 0.09776 0.5867 0.07843 0.6071-0.04267 0.0451-0.1047 0.041-0.8974-0.0656-0.3448-0.0464-0.945-0.1881-1.334-0.3148-0.3886-0.1268-0.7336-0.2243-0.7669-0.2164-0.09257 0.0217 0.7946 2.537 0.9494 2.692 0.08131 0.0814 0.7174 2.382 0.7273 2.631 0.0065 0.1612 0.03954 0.4805 0.07315 0.7096 0.03359 0.2292 0.02555 0.505-0.0181 0.6131-0.04362 0.1082-0.0747 0.2506-0.06862 0.316 0.0078 0.0836-0.05657 0.163-0.2176 0.2681-0.1258 0.0821-0.3261 0.2179-0.4449 0.3016-0.1925 0.1358-0.2566 0.1353-0.5908-3e-3 -0.355-0.1466-0.7542-0.424-1.513-1.051-0.4525-0.3741-0.7681-0.6029-0.7945-0.5765-0.1367 0.1367-0.5676 2.153-0.8118 3.8-0.03969 0.2676-0.09231 0.5576-0.1173 0.6444-0.02496 0.0868-0.1425 0.5407-0.2613 1.009-0.1188 0.4679-0.2599 0.9868-0.3137 1.153-0.05378 0.1662-0.09803 0.3653-0.09803 0.4426-1e-6 0.1888-0.09458 0.2718-0.2986 0.2617-0.4025-0.0202-5.157-1.324-5.28-1.448-0.04251-0.0429-0.03936-0.2111 0.0068-0.374 0.2226-0.7859 0.6688-2.466 0.6768-2.549 5e-3 -0.0511 0.07809-0.252 0.1625-0.4468 0.08442-0.1948 0.3291-0.8543 0.5437-1.466 0.2146-0.6117 0.4073-1.13 0.4283-1.151 0.021-0.0211 0.1025-0.3224 0.181-0.6696 0.105-0.4648 0.112-0.6263 0.0279-0.6123-0.06309 9e-3 -0.5668 0.0947-1.121 0.187-1.064 0.1776-1.415 0.1945-1.766 0.0868-0.1928-0.0591-0.2402-0.1084-0.4363-0.4574-0.3037-0.5406-0.2374-0.8756 0.3341-1.687 0.4936-0.7008 0.3643-0.5536 1.162-1.327 0.3546-0.3438 1.041-0.9375 1.525-1.319 1.173-0.9253 1.784-1.466 1.724-1.526-0.02658-0.0266-0.06936-0.0272-0.09541-1e-3 -0.02607 0.0261-0.1068 0.0166-0.1795-0.0211-0.0726-0.0376-0.3365-0.1055-0.586-0.1508-0.4587-0.0834-2.036-0.6732-2.059-0.7699-0.0066-0.029 0.1528-0.2473 0.3544-0.4856 0.28-0.331 0.4387-0.4676 0.6715-0.5765 0.1676-0.0786 0.3339-0.1593 0.3691-0.1798 0.03525-0.0207 0.1124-0.058 0.1716-0.0825 0.5342-0.2222 1.836-0.8519 1.906-0.9223 0.04898-0.049 0.1314-0.09 0.1833-0.0912 0.05191-1e-3 0.2027-0.0648 0.3352-0.1406 0.2408-0.1384 0.241-0.1385 0.2032-0.9996-0.03678-0.839-0.2031-1.51-0.4826-1.947-0.0704-0.11-0.2946-0.3648-0.4981-0.5667-0.3276-0.325-0.4428-0.3925-1.005-0.5867-0.4902-0.1693-0.8156-0.2203-1.426-0.2221-0.7905-2e-3 -0.7906-2e-3 -1.111 0.6395-0.1761 0.3529-0.5376 1.11-0.8035 1.682-0.4148 0.8928-0.5314 1.087-0.822 1.366-0.1862 0.1793-0.4149 0.3699-0.5087 0.4234-0.1704 0.0973-0.171 0.0973-0.4709-0.627-0.261-0.6303-0.4842-1.396-0.6003-2.058-0.03389-0.1936-0.03527-0.1932-0.2832 0.0546-0.2333 0.2333-0.8191 0.9539-1.155 1.42-0.4831 0.6713-1.889 2.173-2.316 2.474-0.208 0.1465-0.4915 0.3556-0.6297 0.4645-0.2619 0.2064-0.8129 0.4307-0.9996 0.4068-0.1305-0.0166-0.774-0.3441-0.8751-0.4453-0.1474-0.1474-0.1555-0.8478-0.01961-1.701 0.2553-1.602 0.2716-1.478-0.184-1.403-0.2171 0.0355-0.774 0.2-1.237 0.3672-0.463 0.1663-1.196 0.428-1.629 0.5818-0.4328 0.1538-0.8228 0.2973-0.8661 0.3186-0.2866 0.1412-3.044 0.8452-3.101 0.7915-0.08292-0.0793-0.4693-1.268-0.6451-1.985-0.06863-0.2796-0.135-0.5188-0.1474-0.5313-0.01234-0.0125-0.09312-0.3174-0.1796-0.6779-0.08635-0.3606-0.1893-0.7181-0.2289-0.7945-0.03957-0.0764-0.05026-0.1602-0.02412-0.1863 0.02606-0.026 0.02227-0.072-0.0079-0.1022-0.03019-0.0302-0.09525-0.2556-0.1448-0.5007-0.04953-0.2451-0.1139-0.4691-0.1429-0.4981-0.09004-0.09 0.04237-0.2838 0.2021-0.2956 0.0835-6e-3 0.346-0.0684 0.5833-0.1384 0.8817-0.26 1.225-0.3537 1.357-0.3708 0.0744-9e-3 0.236-0.0512 0.3593-0.0931 0.1234-0.0415 0.5207-0.125 0.8831-0.184 2.186-0.3563 3.985-0.7465 3.985-0.865 6e-6 -0.0215-0.3463-0.4747-0.7692-1.007-0.5534-0.6963-0.8005-1.06-0.8827-1.297-0.1081-0.3124-0.1009-0.3514 0.1369-0.7386 0.2485-0.4048 0.2552-0.4102 0.6255-0.5275 0.2057-0.0656 0.4726-0.0974 0.5935-0.0716 0.1209 0.0257 0.4538 0.0646 0.7394 0.0864 0.2856 0.0217 0.7998 0.125 1.142 0.2292 0.3427 0.1043 0.7173 0.2094 0.8325 0.2338 0.2981 0.0631 0.6292 0.1894 1.729 0.6587 0.6335 0.2704 1.455 0.555 1.682 0.5826 0.08674 0.0105 0.05427-0.1764-0.1259-0.724-0.2964-0.9004-0.5184-2.321-0.3612-2.313 0.178 9e-3 1.224 0.2489 1.267 0.29 0.03047 0.029 0.4212 0.3041 0.868 0.6116s0.8929 0.6158 0.9913 0.6851c0.6564 0.4624 1.108 0.7352 1.213 0.7334 0.06712-1e-3 0.203-0.0575 0.302-0.1263 0.09913-0.0684 0.3772-0.2475 0.6176-0.3982 0.6655-0.417 1.177-1.02 1.383-1.63 0.1815-0.538 0.2093-0.7974 0.1425-1.323-0.05317-0.4188-0.2942-1.117-0.4743-1.374-0.06893-0.0984-0.1734-0.2963-0.2323-0.4396-0.05889-0.1434-0.1404-0.2942-0.1814-0.3352-0.06073-0.0607-1.175-0.0148-2.54 0.1044-0.1299 0.0113-0.4788 0.0413-0.7752 0.0664-0.4331 0.0368-1.037-0.0512-1.21-0.1761-0.01628-0.0117-0.1123-0.045-0.2134-0.0739-0.1011-0.029-0.2007-0.0915-0.2217-0.1388-0.05938-0.1333 0.9435-1.346 1.544-1.867 0.5111-0.4436 0.5112-0.444 0.2768-0.4939-0.129-0.0275-0.3842-0.083-0.5671-0.1237-0.1829-0.0407-0.8501-0.1504-1.483-0.244-0.6328-0.0935-1.31-0.2162-1.505-0.2726-0.195-0.0564-0.5644-0.1486-0.8208-0.2047-0.7298-0.1598-1.689-0.5892-2.104-0.9415-0.3603-0.3066-0.3602-0.3065-0.371-0.819-0.01078-0.5125-0.01059-0.5122 0.2922-0.7613 0.1666-0.137 0.5052-0.3209 0.753-0.4084 0.2478-0.0875 0.6931-0.2596 0.9894-0.3823 0.2963-0.1227 0.6003-0.2408 0.6757-0.2625 0.07519-0.0223 0.1524-0.0544 0.1708-0.0727 0.05548-0.0555-2.132-2.032-2.775-2.508-0.1767-0.1306-0.8636-0.7738-1.526-1.43-0.925-0.9156-1.202-1.22-1.191-1.309 0.02093-0.1725 0.1624-0.394 0.526-0.8231 0.9089-1.075 2.204-2.353 3.309-3.143 0.1706-0.0519 0.1706-0.052 1.548 1.381 0.7574 0.788 1.49 1.572 1.627 1.741 0.95 1.171 1.242 1.506 1.678 1.927 0.2703 0.2614 0.4986 0.4682 0.5071 0.4596 0.0086-8e-3 0.1086-0.2689 0.2225-0.5784 0.1139-0.3095 0.2208-0.576 0.2372-0.5924 0.01632-0.0163 0.1113-0.2525 0.2112-0.5249 0.09981-0.2724 0.2916-0.653 0.4265-0.8457 0.2451-0.3505 0.2452-0.3504 0.7564-0.3356 0.4788 0.0139 0.5278 0.031 0.7733 0.2802 0.3426 0.3472 0.9033 1.605 1.072 2.403 0.06815 0.323 0.1714 0.7446 0.2292 0.9366 0.05785 0.192 0.1036 0.3979 0.1011 0.4577-0.0077 0.1897 0.2468 1.978 0.3167 2.225 0.03691 0.1307 0.09533 0.3628 0.1301 0.5154 0.06305 0.2775 0.06301 0.2772 0.4702-0.204 0.4908-0.58 1.765-1.639 1.899-1.58 0.0483 0.0216 0.1671 0.2938 0.2639 0.6048 0.1738 0.558 0.176 0.7459 0.02564 2.273-0.02773 0.2816-0.06923 0.8993-0.1158 1.724-0.019 0.3372-0.01911 0.3374 0.7002 0.7221 0.5165 0.2762 0.8816 0.4155 1.295 0.4943 0.3167 0.0603 0.5896 0.0966 0.6059 0.0803s0.148-0.0334 0.2922-0.0395c0.7558-0.0285 1.701-0.6776 2.277-1.563 0.6083-0.9354 0.5925-0.8734 0.3344-1.274-0.2656-0.4124-0.2619-0.4062-0.9366-1.36-0.6332-0.8949-0.6422-0.9081-0.8348-1.216-0.1706-0.2732-0.427-1.35-0.3409-1.431 0.09357-0.0885 1.544 0.1602 2.234 0.3831 0.3677 0.1187 0.7027 0.2162 0.7443 0.2172 0.07718 2e-3 -0.3379-1.236-0.6957-2.073-0.2096-0.4909-0.8396-2.326-0.831-2.42 0.0028-0.0307-0.02229-0.1427-0.0558-0.2489-0.1406-0.4457-0.2097-1.797-0.1071-2.1 0.1003-0.2959 0.1286-0.3271 0.5098-0.5686 0.3929-0.2489 0.4123-0.252 0.747-0.124 0.4302 0.1645 0.6225 0.2974 1.571 1.088 0.6219 0.5186 0.6675 0.5535 0.7262 0.5535 0.06898 6e-5 0.3054-0.822 0.3605-1.253 0.02305-0.1805 0.06751-0.3533 0.09841-0.3842s0.03323-0.0792 0.0053-0.1071c-0.02795-0.0279-0.02721-0.0746 0.0019-0.1037 0.02914-0.029 0.05779-0.1039 0.06297-0.1663 0.06088-0.7279 0.4452-2.543 0.9004-4.25 0.3179-1.192 0.3213-1.197 0.8978-1.165 0.4962 0.027 1.607 0.2462 2.244 0.4423 0.5035 0.1552 0.6744 0.2053 1.503 0.4581 0.5969 0.2265 1.093 0.4946 1.161 0.6278 0.03346 0.0654-0.0081 0.359-0.092 0.6523-0.3228 1.128-0.4009 1.414-0.4626 1.696-0.03509 0.1605-0.1185 0.4423-0.1855 0.6267-0.06703 0.1844-0.2566 0.7034-0.4212 1.153-0.656 1.793-0.7835 2.164-0.7632 2.217 0.01129 0.0304-0.0015 0.0777-0.02903 0.1052-0.02753 0.0276-0.08281 0.2258-0.1225 0.4408-0.08424 0.4558-0.2705 0.4327 1.458 0.181 0.7207-0.1049 1.197-0.1311 1.389-0.0758 0.2885 0.0831 0.2947 0.0897 0.5064 0.4853 0.1831 0.3422 0.2037 0.4544 0.1403 0.7669-0.04471 0.22-0.1661 0.4868-0.3047 0.6689-0.1268 0.1667-0.2637 0.3613-0.3043 0.4325-0.1183 0.2078-1.864 1.962-2.102 2.114-0.1197 0.0758-0.3913 0.284-0.6037 0.4626s-0.42 0.3423-0.4611 0.3639c-0.04107 0.0215-0.3259 0.2579-0.6327 0.5249-0.6089 0.5298-0.6043 0.4958-0.07767 0.5897 0.8135 0.1451 2.51 0.7375 2.511 0.8766 1.3e-4 0.0368-0.1631 0.2544-0.3627 0.4834-0.3389 0.3887-0.4197 0.4442-1.22 0.8299-2.492 1.201-2.605 1.261-2.652 1.417-0.02524 0.0835-0.03001 0.1688-0.01055 0.1893 0.01947 0.0204 0.04255 0.3362 0.05128 0.7013 0.03555 1.486 0.7921 2.583 2.066 2.993 0.2324 0.0749 0.8007 0.1539 1.263 0.1753 0.8401 0.039 0.8399 0.039 1.206-0.6625 0.3541-0.6781 0.6251-1.258 0.8118-1.738 0.0493-0.1267 0.1161-0.2571 0.1482-0.2892 0.03207-0.0321 0.08998-0.1574 0.1286-0.2786 0.09326-0.293 0.2893-0.533 0.7564-0.9238 0.2907-0.2433 0.4064-0.3052 0.4649-0.2492 0.04302 0.0409 0.07638 0.0993 0.07427 0.1293-0.0025 0.0301 0.125 0.36 0.282 0.7338 0.157 0.3737 0.2836 0.7042 0.2813 0.7345-0.0053 0.0698 0.1742 0.9257 0.2387 1.137 0.04786 0.1552 0.0583 0.148 0.4985-0.3227 0.2477-0.2649 0.5552-0.6284 0.6829-0.808 0.1277-0.1797 0.3769-0.5019 0.5539-0.716 0.177-0.2141 0.3823-0.4659 0.4562-0.5596 0.2322-0.2941 1.49-1.545 1.656-1.646 0.08675-0.0529 0.3352-0.2197 0.552-0.3703 0.571-0.3966 0.9998-0.465 1.434-0.2296 0.4547 0.2465 0.4681 0.2635 0.535 0.6821 0.05092 0.3183-0.127 1.87-0.2847 2.484-0.03138 0.1223-0.04398 0.2343-0.02827 0.2485 0.104 0.0946 1.771-0.4066 3.044-0.9148 0.6588-0.263 1.84-0.6546 2.136-0.7081 0.1879-0.034 0.6854-0.1653 1.688-0.4459 0.1527-0.043 0.3164-0.0785 0.3635-0.08 0.1365-4e-3 0.4534 0.7818 0.7153 1.773 0.04662 0.1768 0.1393 0.4965 0.204 0.7107 0.06474 0.2142 0.1477 0.5278 0.1826 0.6972 0.03493 0.1695 0.135 0.6404 0.2224 1.047 0.08749 0.4063 0.1717 0.8628 0.1871 1.014 0.03168 0.3134 0.05925 0.297-0.9656 0.5728-0.2642 0.0711-0.6561 0.1821-0.871 0.2466-0.215 0.0639-0.4589 0.122-0.5418 0.127-0.08284 5e-3 -0.1736 0.0326-0.2016 0.0613-0.02811 0.0281-0.4072 0.1018-0.8424 0.1651-0.4353 0.0629-1.055 0.1712-1.376 0.2406-0.3218 0.0693-0.7905 0.1574-1.041 0.1961-0.5343 0.0823-1.498 0.3528-1.498 0.42-4.52e-4 0.0257 0.08836 0.1592 0.1964 0.2975 0.1081 0.1383 0.3346 0.4333 0.5034 0.6557 0.1688 0.2224 0.4078 0.5119 0.5309 0.6433 0.1267 0.1352 0.2851 0.4149 0.3654 0.6444 0.137 0.3915 0.134 0.4192-0.08408 0.8043-0.2212 0.3905-0.2324 0.401-0.5513 0.5068-0.4107 0.1363-1.826 0.0103-2.551-0.227-0.2861-0.0936-0.656-0.2026-0.8216-0.2417-0.1657-0.0392-0.7255-0.2439-1.244-0.4551-1.036-0.4221-2.225-0.836-2.265-0.788-0.01374 0.0168 0.08906 0.373 0.2285 0.7918 0.1395 0.4188 0.2502 0.8386 0.2457 0.9326-0.0039 0.0938 0.02164 0.1989 0.05648 0.2343 0.03522 0.0352 0.05396 0.0895 0.04168 0.1203-0.01211 0.0307-0.0013 0.2522 0.02376 0.492 0.02506 0.2398 0.01133 0.4442-0.03016 0.454-0.2057 0.0488-1.223-0.2358-1.462-0.4087-0.146-0.1054-0.3203-0.2278-0.388-0.2718-0.1152-0.0748-0.5496-0.376-0.96-0.6659-0.09823-0.0693-0.4803-0.3267-0.8491-0.5716-0.6706-0.4454-0.6705-0.4456-1.367-0.0143-0.5978 0.37-0.752 0.4972-1.086 0.8948-0.8847 1.052-0.9362 2.13-0.1746 3.645 0.186 0.3701 0.3681 0.7029 0.4046 0.7394 0.03649 0.0364 0.267 0.0497 0.5124 0.0298 0.2455-0.0199 0.5368-0.0422 0.6474-0.0501 0.7655-0.0552 1.308-0.0995 1.914-0.1557 0.5531-0.0512 0.8117-0.0286 1.25 0.109 0.4744 0.149 0.7158 0.2615 0.6689 0.3114-0.0067 8e-3 -0.2209 0.2844-0.4762 0.6157-0.2778 0.3605-0.6968 0.8144-1.043 1.13-0.6348 0.5782-0.631 0.5468-0.07653 0.63 0.1546 0.0233 0.2954 0.0564 0.3126 0.0735 0.01714 0.0171 0.6366 0.121 1.376 0.2308 1.205 0.1787 2.167 0.3672 2.238 0.4378 0.01423 0.014 0.1866 0.0557 0.3831 0.0927 0.4915 0.0927 1.72 0.6896 2.004 0.9732 0.1956 0.1956 0.2346 0.2983 0.2688 0.7002 0.04004 0.471 0.0401 0.4712-0.2877 0.7598-0.3165 0.2787-1.096 0.6333-2.135 0.9717-0.1954 0.0636-0.3842 0.1443-0.4197 0.1798-0.05093 0.0508 0.112 0.2275 0.7681 0.8322 0.4579 0.4221 0.8878 0.8035 0.9551 0.848 0.06725 0.0445 0.3783 0.305 0.6915 0.5784 0.3132 0.2735 0.592 0.5026 0.6195 0.5094 0.08937 0.0221 2.42 2.362 2.42 2.43 1.6e-5 0.052-1.424 1.512-2.549 2.638zm-17.33-18.54a2.742 2.742 0 0 0 0.7839-1.652c0.2366-0.8543-0.2316-1.944-1.144-2.611-0.6058-0.4428-1.593-0.5685-2.375-0.3024-0.07361 0.025-0.1453 0.0541-0.2157 0.0852a2.742 2.742 0 0 0-0.09123 0.043c-0.2205 0.108-0.4235 0.2446-0.604 0.4034a2.742 2.742 0 0 0-0.2326 0.1557 2.742 2.742 0 0 0 4e-6 3.878 2.742 2.742 0 0 0 3.878 3.7e-4z" style="fill-opacity:.12;fill:#fff"/>
<use transform="translate(48.75 -97.5)" xlink:href="#a"/>
<use transform="translate(-1.694e-7 -195)" xlink:href="#a"/>
<use transform="translate(48.75 -292.5)" xlink:href="#a"/>
<use transform="translate(-1.694e-7 -390)" xlink:href="#a"/>
<use transform="translate(48.75 -487.5)" xlink:href="#a"/>
<use transform="translate(-1.694e-7 -585)" xlink:href="#a"/>
<use transform="translate(48.75 -682.5)" xlink:href="#a"/>
<use transform="translate(-1.694e-7 -780)" xlink:href="#a"/>
<use transform="translate(48.75 -877.5)" xlink:href="#a"/>
<use transform="translate(97.5)" xlink:href="#a"/>
<use transform="translate(146.2 -97.5)" xlink:href="#a"/>
<use transform="translate(97.5 -195)" xlink:href="#a"/>
<use transform="translate(146.2 -292.5)" xlink:href="#a"/>
<use transform="translate(97.5 -390)" xlink:href="#a"/>
<use transform="translate(146.2 -487.5)" xlink:href="#a"/>
<use transform="translate(97.5 -585)" xlink:href="#a"/>
<use transform="translate(146.2 -682.5)" xlink:href="#a"/>
<use transform="translate(97.5 -780)" xlink:href="#a"/>
<use transform="translate(146.2 -877.5)" xlink:href="#a"/>
<use transform="translate(195)" xlink:href="#a"/>
<use transform="translate(243.7 -97.5)" xlink:href="#a"/>
<use transform="translate(195 -195)" xlink:href="#a"/>
<use transform="translate(243.7 -292.5)" xlink:href="#a"/>
<use transform="translate(195 -390)" xlink:href="#a"/>
<use transform="translate(243.7 -487.5)" xlink:href="#a"/>
<use transform="translate(195 -585)" xlink:href="#a"/>
<use transform="translate(243.7 -682.5)" xlink:href="#a"/>
<use transform="translate(195 -780)" xlink:href="#a"/>
<use transform="translate(243.7 -877.5)" xlink:href="#a"/>
<use transform="translate(292.5)" xlink:href="#a"/>
<use transform="translate(341.2 -97.5)" xlink:href="#a"/>
<use transform="translate(292.5 -195)" xlink:href="#a"/>
<use transform="translate(341.2 -292.5)" xlink:href="#a"/>
<use transform="translate(292.5 -390)" xlink:href="#a"/>
<use transform="translate(341.2 -487.5)" xlink:href="#a"/>
<use transform="translate(292.5 -585)" xlink:href="#a"/>
<use transform="translate(341.2 -682.5)" xlink:href="#a"/>
<use transform="translate(292.5 -780)" xlink:href="#a"/>
<use transform="translate(341.2 -877.5)" xlink:href="#a"/>
<use transform="translate(390)" xlink:href="#a"/>
<use transform="translate(438.7 -97.5)" xlink:href="#a"/>
<use transform="translate(390 -195)" xlink:href="#a"/>
<use transform="translate(438.7 -292.5)" xlink:href="#a"/>
<use transform="translate(390 -390)" xlink:href="#a"/>
<use transform="translate(438.7 -487.5)" xlink:href="#a"/>
<use transform="translate(390 -585)" xlink:href="#a"/>
<use transform="translate(438.7 -682.5)" xlink:href="#a"/>
<use transform="translate(390 -780)" xlink:href="#a"/>
<use transform="translate(438.7 -877.5)" xlink:href="#a"/>
<use transform="translate(487.5)" xlink:href="#a"/>
<use transform="translate(536.2 -97.5)" xlink:href="#a"/>
<use transform="translate(487.5 -195)" xlink:href="#a"/>
<use transform="translate(536.2 -292.5)" xlink:href="#a"/>
<use transform="translate(487.5 -390)" xlink:href="#a"/>
<use transform="translate(536.2 -487.5)" xlink:href="#a"/>
<use transform="translate(487.5 -585)" xlink:href="#a"/>
<use transform="translate(536.2 -682.5)" xlink:href="#a"/>
<use transform="translate(487.5 -780)" xlink:href="#a"/>
<use transform="translate(536.2 -877.5)" xlink:href="#a"/>
<use transform="translate(585)" xlink:href="#a"/>
<use transform="translate(585 -195)" xlink:href="#a"/>
<use transform="translate(585 -390)" xlink:href="#a"/>
<use transform="translate(585 -585)" xlink:href="#a"/>
<use transform="translate(585 -780)" xlink:href="#a"/>
</g>
</svg>
