<?xml version="1.0" encoding="UTF-8" standalone="no"?>
<svg
   xmlns:dc="http://purl.org/dc/elements/1.1/"
   xmlns:cc="http://creativecommons.org/ns#"
   xmlns:rdf="http://www.w3.org/1999/02/22-rdf-syntax-ns#"
   xmlns:svg="http://www.w3.org/2000/svg"
   xmlns="http://www.w3.org/2000/svg"
   xmlns:sodipodi="http://sodipodi.sourceforge.net/DTD/sodipodi-0.dtd"
   xmlns:inkscape="http://www.inkscape.org/namespaces/inkscape"
   id="svg4560"
   version="1.1"
   viewBox="0 0 64.255951 64.255951"
   height="64.255951mm"
   width="64.255951mm"
   sodipodi:docname="favicon.svg"
   inkscape:version="0.92.1 r15371"
   inkscape:export-filename="C:\Users\Tito\Projects\0937\arteempecas.pt\assets\icon.png"
   inkscape:export-xdpi="202.39059"
   inkscape:export-ydpi="202.39059">
  <sodipodi:namedview
     pagecolor="#ffffff"
     bordercolor="#666666"
     borderopacity="1"
     objecttolerance="10"
     gridtolerance="10"
     guidetolerance="10"
     inkscape:pageopacity="0"
     inkscape:pageshadow="2"
     inkscape:window-width="1600"
     inkscape:window-height="837"
     id="namedview4530"
     showgrid="false"
     inkscape:zoom="3.1905834"
     inkscape:cx="88.289052"
     inkscape:cy="144.80046"
     inkscape:window-x="-8"
     inkscape:window-y="-8"
     inkscape:window-maximized="1"
     inkscape:current-layer="layer1" />
  <defs
     id="defs4554" />
  <metadata
     id="metadata4557">
    <rdf:RDF>
      <cc:Work
         rdf:about="">
        <dc:format>image/svg+xml</dc:format>
        <dc:type
           rdf:resource="http://purl.org/dc/dcmitype/StillImage" />
        <dc:title />
      </cc:Work>
    </rdf:RDF>
  </metadata>
  <g
     transform="translate(-72.872017,-116.37202)"
     id="layer1">
    <circle
       r="32.127975"
       cy="148.5"
       cx="104.99999"
       id="path5311"
       style="opacity:1;fill:#002950;fill-opacity:1;stroke:none;stroke-width:0.2;stroke-miterlimit:4;stroke-dasharray:none;stroke-opacity:1;paint-order:stroke fill markers" />
    <path
       style="fill:#ffffff;fill-opacity:1;stroke-width:3.14960623"
       d="M 51.806641 81.013672 L 51.289062 81.53125 L 51.289062 84.523438 L 44.546875 84.523438 C 18.200454 84.523438 12.824219 115.25586 12.824219 115.25586 L 12.824219 123.66602 L 12.824219 126.43164 L 12.824219 133.82812 L 12.824219 141.27148 L 12.824219 162.50781 L 29.462891 162.50781 L 29.462891 141.27148 L 47.660156 141.27148 L 47.660156 162.50781 L 64.298828 162.50781 L 64.298828 126.43359 L 64.298828 104.65039 L 64.298828 98.855469 L 64.298828 90.886719 L 64.298828 84.525391 L 60.621094 84.525391 L 60.621094 81.53125 L 60.103516 81.013672 L 51.806641 81.013672 z M 78.298828 81.013672 L 77.777344 81.53125 L 77.777344 84.525391 L 74.148438 84.525391 L 74.148438 90.886719 L 74.148438 91.927734 L 74.148438 97.773438 L 74.148438 98.855469 L 74.148438 104.65039 L 74.148438 105.73828 L 74.148438 126.43359 L 74.148438 127.46875 L 74.146484 127.46875 L 74.146484 133.82812 L 74.146484 142.2793 L 74.148438 142.2793 L 74.148438 162.29102 L 90.789062 162.29102 L 90.789062 148.00586 L 108.98633 148.12305 L 108.98633 162.40625 L 125.57227 162.40625 L 125.57227 150.76172 C 125.57227 150.76172 124.54086 135.20321 108.98633 135.38867 L 108.98633 133.82812 L 125.57227 133.82812 L 125.57227 127.46875 L 125.57422 115.25586 C 125.57422 115.25586 120.21389 84.639611 94.039062 84.529297 L 94.039062 84.525391 L 93.953125 84.525391 C 93.935134 84.525362 93.918401 84.523438 93.900391 84.523438 L 93.84375 84.525391 L 87.160156 84.525391 L 87.160156 81.53125 L 86.642578 81.013672 L 78.298828 81.013672 z M 130.75977 81.013672 L 130.24219 81.53125 L 130.24219 84.525391 L 126.09375 84.525391 L 126.09375 90.886719 L 126.09375 98.289062 L 143.76758 98.289062 L 143.76758 99.376953 L 143.76758 119.50195 L 143.76758 120.58594 L 143.76758 140.71094 L 143.76758 161.91992 L 160.41797 161.91992 L 160.41797 140.71094 L 160.41797 120.58594 L 160.41797 119.50195 L 160.41797 99.376953 L 160.41797 98.289062 L 177.57227 98.289062 L 177.57227 90.886719 L 177.57227 84.525391 L 174.40625 84.525391 L 174.40625 81.53125 L 173.89648 81.013672 L 165.5957 81.013672 L 165.07812 81.53125 L 165.07812 84.525391 L 156.78125 84.525391 L 156.78125 81.53125 L 156.25977 81.013672 L 147.92188 81.013672 L 147.4043 81.53125 L 147.4043 84.525391 L 139.62695 84.525391 L 139.62695 81.53125 L 139.10547 81.013672 L 130.75977 81.013672 z M 217.53711 81.013672 L 217.02539 81.53125 L 217.02539 84.525391 L 212.35742 84.525391 L 212.35742 84.523438 L 210.28711 84.523438 C 183.9302 84.523438 178.60352 115.25586 178.60352 115.25586 L 178.60352 126.43164 L 178.60352 127.46875 L 178.60352 133.82812 L 178.60352 156.21289 L 178.60352 162.57422 L 230.0332 162.57422 L 230.0332 156.21289 L 230.0332 148.67578 L 226.4043 148.67578 L 226.4043 145.6875 L 225.88281 145.16211 L 217.53711 145.16211 L 217.02539 145.6875 L 217.02539 148.67578 L 209.24023 148.67578 L 209.24023 145.6875 L 208.73047 145.16211 L 200.42969 145.16211 L 199.86328 145.6875 L 199.86328 148.67578 L 195.19336 148.67578 L 195.19336 133.82812 L 212.35938 133.82812 L 212.35938 127.46875 L 209.2832 127.46875 L 209.24023 124.47656 L 208.73047 123.95508 L 200.42969 123.95508 L 199.86133 124.47656 L 199.9043 127.46875 L 195.19336 127.46875 L 195.19336 123.93555 L 195.19336 114.74023 C 197.27195 99.889077 211.31055 97.773437 211.31055 97.773438 L 230.0332 97.773438 L 230.0332 91.927734 L 230.0332 84.525391 L 226.4043 84.525391 L 226.4043 81.53125 L 225.88281 81.013672 L 217.53711 81.013672 z M 45.585938 97.773438 L 47.660156 97.773438 L 47.660156 98.855469 L 47.660156 104.65039 L 47.660156 126.43359 L 47.660156 127.46875 L 43.511719 127.46875 L 43.511719 124.47461 L 42.990234 123.95312 L 34.648438 123.95312 L 34.130859 124.47461 L 34.130859 127.46875 L 29.462891 127.46875 L 29.462891 126.43164 L 29.464844 126.43164 L 29.464844 114.74023 C 31.539912 99.889085 45.585935 97.773436 45.585938 97.773438 z M 90.789062 97.773438 L 92.861328 97.773438 C 92.861328 97.773438 106.86223 99.889077 108.98633 114.74023 L 108.98438 127.46875 L 104.22656 127.46875 L 104.26953 124.47656 L 103.75195 123.95508 L 95.455078 123.95508 L 94.9375 124.47656 L 94.894531 127.46875 L 90.789062 127.46875 L 90.789062 126.43359 L 90.789062 105.73828 L 90.789062 104.65039 L 90.789062 98.855469 L 90.789062 97.773438 z "
       id="path4654"
       transform="matrix(0.26458334,0,0,0.26458334,72.872017,116.37202)" />
  </g>
</svg>
