<svg xmlns="http://www.w3.org/2000/svg" viewBox="0 0 64.256 64.256" height="242.857" width="242.857">
    <g transform="translate(-72.872 -116.372)">
        <circle r="32.128" cy="148.5" cx="105" fill="#002950" paint-order="stroke fill markers"/>
        <path d="M86.58 137.807l-.138.137v.792h-1.784c-6.97 0-8.393 8.13-8.393 8.13v12.503h4.402v-5.619h4.815v5.619h4.402v-20.633h-.973v-.792l-.137-.137H86.58zm7.009 0l-.138.137v.792h-.96v11.362h-.001v9.214h4.403v-3.78l4.815.03v3.78h4.388v-3.08s-.273-4.117-4.388-4.068v-.413h4.388v-4.914s-1.417-8.1-8.343-8.13v-.001h-1.82v-.792l-.137-.137H93.59zm13.88 0l-.137.137v.792h-1.098v3.642h4.677v16.835h4.405v-16.835h4.539v-3.642h-.838v-.792l-.135-.137h-2.196l-.137.137v.792h-2.195v-.792l-.138-.137h-2.206l-.137.137v.792h-2.058v-.792l-.138-.137h-2.208zm22.96 0l-.136.137v.792h-1.783c-6.973 0-8.382 8.13-8.382 8.13v12.52h13.607v-3.677h-.96v-.79l-.138-.14h-2.208l-.136.14v.79h-2.06v-.79l-.134-.14h-2.197l-.15.14v.79h-1.235v-3.928h4.542v-1.683h-.814l-.012-.792-.134-.138h-2.197l-.15.138.011.792h-1.246v-3.368c.55-3.929 4.264-4.489 4.264-4.489h4.954v-3.505h-.96v-.792l-.138-.137h-2.208zm-45.496 4.434h.55v7.857h-1.099v-.792l-.137-.138h-2.208l-.137.138v.792h-1.235v-3.368c.55-3.929 4.266-4.489 4.266-4.489zm11.96 0h.549s3.704.56 4.266 4.49v3.367h-1.26l.012-.792-.137-.138h-2.195l-.137.138-.011.792h-1.087v-7.857z" fill="#fff"/>
    </g>
</svg>
