<?xml version="1.0" encoding="utf-8"?>
<!-- Generator: Adobe Illustrator 16.0.0, SVG Export Plug-In . SVG Version: 6.00 Build 0)  -->
<!DOCTYPE svg PUBLIC "-//W3C//DTD SVG 1.1//EN" "http://www.w3.org/Graphics/SVG/1.1/DTD/svg11.dtd">
<svg version="1.1" id="Camada_1" xmlns="http://www.w3.org/2000/svg" xmlns:xlink="http://www.w3.org/1999/xlink" x="0px" y="0px"
	 width="841.89px" height="595.28px" viewBox="0 0 841.89 595.28" enable-background="new 0 0 841.89 595.28" xml:space="preserve">
<path fill-rule="evenodd" clip-rule="evenodd" fill="#BE1622" d="M629.17,432.15c-0.449-7.051-11.01-12.68-23.97-12.68
	c-12.97,0-23.53,5.629-23.979,12.68H581.2v-19.73h4.659l-19.33-19.27L547.2,412.42h5.12v19.26l-29.35-20.67l-29.351,20.67v-14.56
	l-13.97-14.101H392.53l-13.97,14.101v14.56h-0.88l-34.53-18.539v-27.98h2.33l-20.26-48.87l-20.27,48.87h2.33v28.119l-0.46-0.389
	l-35,18.789h-1.34V419h3.26l-32.61-32.9L208.52,419h3.26v12.68l-9.32-9.39h-39.13l-9.32,9.39V536h57.77h58.7h58.7h49.38h115.06h58.7
	h28.88h47.989h0.15h58.551V431.68l-9.32-9.39h-39.6l-9.32,9.39h-0.461v0.471H629.17z"/>
<path fill-rule="evenodd" clip-rule="evenodd" fill="#010202" d="M154.47,172.25h40.8v-28.39c5.1-36.12,39.53-41.28,39.53-41.28
	h45.9v-14.2h-43.35V70.32h-5.1c-64.6,0-77.78,74.83-77.78,74.83V172.25z M239.9,172.25h40.8v-50.32h-40.8V172.25z M239.9,105.16
	v14.19h40.8v-14.19H239.9z M239.9,85.8h40.8V70.32h-40.8V85.8z M248.82,67.74h22.96v-6.45L270.5,60h-20.4l-1.28,1.29V67.74z
	 M206.75,172.25h22.95v-6.46l-1.28-1.29h-20.4l-1.27,1.29V172.25z M154.47,174.83v15.48H280.7v-15.48H154.47z M154.47,192.89v15.48
	H280.7v-15.48H154.47z M484.71,67.74h22.95v-6.45l-1.27-1.29h-20.4l-1.28,1.29V67.74z M442.63,67.74h22.96v-6.45L464.311,60h-20.4
	l-1.28,1.29V67.74z M528.061,67.74h22.959v-6.45L549.74,60h-20.4l-1.279,1.29V67.74z M432.43,70.32V85.8h126.24V70.32H432.43z
	 M432.43,88.38v15.49h126.24V88.38H432.43z M154.47,211.07v49.03h40.8v-49.03H154.47z M239.9,211.07v49.03h40.8v-49.03H239.9z
	 M431.16,172.25v-27.1c0,0-13.18-74.83-77.78-74.83h-5.1v18.06h-43.35v14.2h45.9c0,0,34.43,5.16,39.53,41.28v28.39H431.16z
	 M345.73,172.25v-50.32h-40.8v50.32H345.73z M345.73,105.16h-40.8v14.19h40.8V105.16z M345.73,85.8V70.32h-40.8V85.8H345.73z
	 M336.8,67.74v-6.45L335.53,60h-20.4l-1.28,1.29v6.45H336.8z M378.88,172.25v-6.46l-1.27-1.29h-20.4l-1.28,1.29v6.46H378.88z
	 M431.16,174.83H304.93v15.48h126.23V174.83z M387.81,192.89h-82.88v15.48h82.88V192.89z M561.221,172.25h40.799v-28.39
	c5.101-36.12,39.521-41.28,39.521-41.28h45.91v-14.2h-43.36V70.32h-5.1c-64.6,0-77.77,74.83-77.77,74.83V172.25z M646.65,85.8h40.8
	V70.32h-40.8V85.8z M655.57,67.74h22.949v-6.45L677.25,60h-20.4l-1.279,1.29V67.74z M613.49,172.25h22.949v-6.46l-1.27-1.29h-20.4
	l-1.279,1.29V172.25z M613.49,223.85h22.949v-6.45l-1.27-1.29h-20.4l-1.279,1.29V223.85z M655.57,223.85h22.949v-6.45l-1.27-1.29
	h-20.4l-1.279,1.29V223.85z M561.221,244.61v15.49H687.45v-15.49H561.221z M561.221,192.89v49.03h40.799v-49.03H561.221z
	 M644.09,174.83h-82.869v15.48h82.869V174.83z M687.45,226.43h-82.88v15.49h82.88V226.43z M345.73,210.6h-40.8v49.03h40.8V210.6z
	 M516.59,209.66h-40.8v49.03h40.8V209.66z M516.59,158.05h-40.8v49.03h40.8V158.05z M516.59,106.45h-40.8v49.02h40.8V106.45z
	 M390.36,193.83v16.77h-42.08v14.19h42.08v34.84h40.8v-28.39C431.16,231.24,428.609,193.4,390.36,193.83z"/>
<path fill-rule="evenodd" clip-rule="evenodd" fill="#098B81" d="M195.01,292.71h-33.79c-2.17,0-3.91,0.59-5.24,1.77
	c-1.32,1.18-1.98,2.5-1.98,3.96v66.6c0,1.46,0.66,2.78,1.98,3.96c1.33,1.18,3.07,1.77,5.24,1.77h33.79c2.24,0,3.95-0.59,5.11-1.77
	c1.16-1.18,1.74-2.7,1.74-4.57c0-2.029-0.58-3.64-1.74-4.82c-1.16-1.18-2.87-1.77-5.11-1.77H168.07v-20.119h18.04
	c2.319,0,4.069-0.591,5.229-1.771c1.16-1.181,1.74-2.71,1.74-4.58c0-2.03-0.58-3.63-1.74-4.81c-1.16-1.181-2.91-1.771-5.229-1.771
	h-18.04v-19.149h26.939c2.24,0,3.95-0.591,5.11-1.771c1.16-1.181,1.74-2.7,1.74-4.57c0-2.04-0.58-3.64-1.74-4.82
	C198.96,293.3,197.25,292.71,195.01,292.71z M258.38,348.689c2,0,3.65-0.539,4.93-1.64c1.28-1.1,2.24-2.26,2.89-3.479l13.46-28.42
	v51.109c0,1.461,0.63,2.78,1.87,3.961c1.24,1.18,2.86,1.77,4.87,1.77c2.24,0,4.01-0.59,5.29-1.77c1.28-1.181,1.92-2.5,1.92-3.961
	v-69.04c0-1.46-0.64-2.78-1.92-3.96c-1.28-1.18-3.05-1.77-5.29-1.77l-1.92-0.12c-2.09-0.08-3.81,0.3-5.18,1.16
	c-1.36,0.85-2.44,1.93-3.24,3.23l-17.68,36.1l-17.68-36.1c-0.72-1.3-1.76-2.34-3.12-3.11c-1.37-0.77-3.09-1.16-5.18-1.16h-2.04
	c-2.16,0-3.91,0.59-5.23,1.77c-1.32,1.18-1.99,2.5-1.99,3.96v69.04c0,1.461,0.67,2.78,1.99,3.961c1.32,1.18,3.07,1.77,5.23,1.77
	c2.08,0,3.75-0.59,4.99-1.77c1.24-1.181,1.86-2.5,1.86-3.961V315.15l13.35,28.42c0.72,1.22,1.73,2.38,3.01,3.479
	C254.85,348.15,256.46,348.689,258.38,348.689z M368.35,304.91h8.9c5.37,0,9.26,1.199,11.66,3.59c2.41,2.4,3.61,5.35,3.61,8.85
	v2.801c0,1.47-0.3,2.89-0.9,4.27s-1.53,2.6-2.77,3.66c-1.24,1.061-2.82,1.91-4.75,2.561c-1.92,0.649-4.21,0.979-6.85,0.979h-8.9
	V304.91z M354.28,298.44v67.21c0,1.459,0.66,2.89,1.98,4.27c1.32,1.38,3.07,2.07,5.23,2.07c2.09,0,3.75-0.59,4.99-1.77
	c1.25-1.181,1.87-2.5,1.87-3.961v-22.93h8.9c5.37,0,9.9-0.67,13.59-2.01c3.68-1.35,6.69-3.12,9.01-5.311
	c2.33-2.199,4.01-4.72,5.06-7.56c1.04-2.851,1.56-5.82,1.56-8.91v-1.34c0-3.58-0.56-6.91-1.68-10c-1.13-3.091-2.89-5.79-5.3-8.11
	c-2.4-2.32-5.45-4.13-9.14-5.43c-3.68-1.3-8.05-1.95-13.1-1.95h-15.76c-2.16,0-3.91,0.59-5.23,1.77
	C354.94,295.66,354.28,296.98,354.28,298.44z M468.93,292.71h-33.8c-2.159,0-3.899,0.59-5.229,1.77c-1.32,1.18-1.98,2.5-1.98,3.96
	v66.6c0,1.46,0.66,2.78,1.98,3.96c1.33,1.18,3.07,1.77,5.229,1.77h33.8c2.24,0,3.94-0.59,5.11-1.77c1.16-1.18,1.739-2.7,1.739-4.57
	c0-2.029-0.579-3.64-1.739-4.82c-1.17-1.18-2.87-1.77-5.11-1.77H441.99v-20.119h18.039c2.32,0,4.07-0.591,5.23-1.771
	c1.16-1.181,1.74-2.71,1.74-4.58c0-2.03-0.58-3.63-1.74-4.81c-1.16-1.181-2.91-1.771-5.23-1.771H441.99v-19.149h26.939
	c2.24,0,3.94-0.591,5.11-1.771c1.16-1.181,1.739-2.7,1.739-4.57c0-2.04-0.579-3.64-1.739-4.82
	C472.87,293.3,471.17,292.71,468.93,292.71z M495.09,321.13v21.22c0,3.82,0.54,7.42,1.62,10.801c1.08,3.369,2.67,6.379,4.75,9.02
	c2.09,2.641,4.67,4.82,7.761,6.53c3.079,1.71,6.629,2.72,10.639,3.05c0.881,1.62,1.42,3.05,1.621,4.27
	c0.199,1.221,0.14,2.4-0.181,3.53c-0.239,0.9-0.64,1.57-1.2,2.021c-0.56,0.439-1.26,0.689-2.1,0.729
	c-0.85,0.04-1.77-0.079-2.77-0.37c-1-0.279-2.021-0.67-3.07-1.16c-1.36-0.569-2.52-0.629-3.48-0.18c-0.97,0.45-1.65,1.141-2.05,2.07
	c-0.399,0.939-0.46,1.98-0.18,3.109c0.28,1.141,0.979,2.08,2.11,2.811c2.239,1.38,4.629,2.17,7.149,2.38
	c2.53,0.2,4.851-0.08,6.979-0.86c2.121-0.77,3.92-1.97,5.41-3.59c1.48-1.63,2.301-3.58,2.461-5.859c0.16-1.631,0.02-3.19-0.42-4.7
	c-0.44-1.5-1.021-2.94-1.74-4.32c4.97-0.659,9-2.18,12.08-4.58c3.09-2.399,4.629-5.06,4.629-7.989c0-1.381-0.379-2.541-1.139-3.471
	c-0.761-0.939-1.941-1.41-3.551-1.41c-0.72,0-1.359,0.041-1.92,0.12c-0.561,0.091-1.1,0.229-1.62,0.431
	c-0.521,0.209-1.11,0.49-1.75,0.859c-0.64,0.36-1.399,0.83-2.28,1.4c-1.279,0.73-2.629,1.279-4.029,1.65
	c-1.4,0.359-3.271,0.539-5.59,0.539c-3.851,0-7.16-1.279-9.92-3.84c-2.771-2.561-4.15-6.561-4.15-12.01V320.27
	c0-5.439,1.38-9.47,4.15-12.069c2.76-2.601,6.069-3.9,9.92-3.9c2.319,0,4.229,0.28,5.709,0.851c1.48,0.57,2.871,1.26,4.15,2.07
	c1.36,0.899,2.561,1.529,3.61,1.889c1.04,0.371,2.239,0.551,3.6,0.551c1.29,0,2.41-0.439,3.37-1.34
	c0.96-0.891,1.439-2.15,1.439-3.78c0-1.71-0.539-3.33-1.619-4.88c-1.08-1.54-2.61-2.93-4.57-4.15c-1.96-1.22-4.27-2.19-6.91-2.92
	c-2.65-0.74-5.539-1.1-8.66-1.1c-4.57,0-8.619,0.79-12.149,2.38c-3.53,1.58-6.49,3.72-8.9,6.399c-2.399,2.681-4.21,5.84-5.409,9.451
	C495.689,313.34,495.09,317.141,495.09,321.13z M580.33,341.62l9.5-30.25l9.26,30.25H580.33z M620.74,364.061l-23.09-67.451
	c-0.4-1.38-1.32-2.58-2.771-3.6c-1.44-1.01-3.12-1.52-5.05-1.52c-2,0-3.7,0.51-5.109,1.52c-1.4,1.02-2.301,2.22-2.701,3.6
	l-23.569,67.58c-0.41,1.381-0.14,2.82,0.78,4.33c0.92,1.5,2.459,2.541,4.629,3.11c1.92,0.479,3.67,0.32,5.23-0.489
	c1.561-0.82,2.58-1.91,3.07-3.301l4.439-14.27h26.221l4.33,14.15c0.399,1.379,1.379,2.479,2.949,3.299
	c1.561,0.811,3.34,0.971,5.351,0.48c2.159-0.57,3.68-1.6,4.569-3.109C620.9,366.891,621.141,365.45,620.74,364.061z M663.109,371.99
	c7.771,0,13.871-1.971,18.281-5.91c4.409-3.95,6.609-9.34,6.609-16.17c0-4.391-0.859-7.96-2.58-10.73
	c-1.73-2.76-3.891-5.06-6.5-6.89c-2.6-1.83-5.43-3.36-8.48-4.58c-3.039-1.21-5.869-2.431-8.479-3.649
	c-2.601-1.221-4.771-2.61-6.489-4.15c-1.721-1.551-2.58-3.62-2.58-6.221c0-3.01,0.92-5.31,2.76-6.89c1.84-1.59,4.209-2.38,7.1-2.38
	c3.359,0,6.05,0.53,8.05,1.58c2.011,1.061,3.49,2,4.45,2.811c0.88,0.729,1.83,1.379,2.83,1.949s2.14,0.85,3.43,0.85
	c2.16,0,3.7-0.58,4.631-1.76c0.92-1.18,1.379-2.709,1.379-4.58c0-1.049-0.52-2.379-1.56-3.959c-1.05-1.59-2.59-3.11-4.63-4.581
	c-2.051-1.46-4.57-2.7-7.58-3.72c-3.01-1.01-6.51-1.52-10.52-1.52c-3.851,0-7.301,0.55-10.34,1.65
	c-3.051,1.09-5.621,2.66-7.701,4.69c-2.09,2.029-3.689,4.43-4.81,7.199c-1.12,2.761-1.68,5.851-1.68,9.271
	c0,4.229,0.86,7.7,2.579,10.431c1.721,2.72,3.91,5,6.551,6.83c2.65,1.83,5.48,3.35,8.48,4.569c3.01,1.22,5.84,2.479,8.479,3.78
	c2.649,1.3,4.83,2.79,6.55,4.449c1.73,1.67,2.59,3.811,2.59,6.41c0,3.09-0.92,5.34-2.77,6.771c-1.84,1.42-4.37,2.13-7.57,2.13
	c-2.811,0-5.449-0.51-7.939-1.52c-2.48-1.021-4.41-2.18-5.771-3.48c-0.88-0.811-1.84-1.561-2.89-2.25
	c-1.04-0.699-2.24-1.08-3.6-1.16c-4.17,0-6.261,1.91-6.261,5.73c0,1.71,0.479,3.25,1.44,4.63c0.97,1.39,2.209,2.63,3.729,3.72
	c1.53,1.1,3.229,2.061,5.11,2.87c1.89,0.81,3.79,1.5,5.72,2.069c1.92,0.57,3.761,1,5.53,1.281
	C660.42,371.85,661.9,371.99,663.109,371.99z"/>
<path fill-rule="evenodd" clip-rule="evenodd" fill="#FFFFFF" d="M201.74,495.58c0-2.689-0.86-4.85-2.56-6.49l-23.56-22.561V451.63
	h14.46v15.13h11.66V447.98c0-4.101-2.09-6.19-6.29-6.271h-25.19c-4.2,0.08-6.3,2.2-6.3,6.38v18.939c0,2.591,0.85,4.711,2.57,6.381
	l23.55,22.67v16.07h-14.46v-16.541h-11.66V515.7c0,4.18,2.1,6.31,6.3,6.38h25.19c4.2-0.07,6.29-2.2,6.29-6.38V495.58z
	 M232.35,511.68v-59.57h16.33v59.57H232.35z M260.34,448.09c-0.08-4.18-2.18-6.3-6.3-6.38h-27.05c-4.13,0.08-6.23,2.2-6.3,6.38
	v67.61c0.07,4.18,2.17,6.31,6.3,6.38h27.05c4.12-0.07,6.22-2.2,6.3-6.38V448.09z M290.94,512.15V485.2h9.91l5.49,3.93v23.021H290.94
	z M300.65,475.27h-9.71v-23.64h15.45v19.521L300.65,475.27z M318.46,491.35c0-2.97-0.89-5.3-2.69-7c-0.23-0.25-2.33-1.699-6.28-4.35
	c3.82-2.55,5.84-3.939,6.07-4.16c1.66-1.59,2.5-3.83,2.5-6.72v-21.03c-0.09-4.18-2.12-6.3-6.1-6.38h-32.68v80.37h32.89
	c4.11-0.07,6.21-2.2,6.29-6.38V491.35z M369.59,511.21H348.6v-25.06h18.19v-10.4H348.6v-23.17h20.53v-10.87h-32.19v80.37h32.65
	V511.21z M441.07,432.34l-8.84-13.77h-14.48v0.459l14.79,13.721h8.53V432.34z M430.66,496.55l5.97-36.53l5.899,36.53H430.66z
	 M442.99,441.23h-12.65l-15.4,80.649v0.2h11.669l2.44-15.13h15.19l2.42,15.13h11.66L442.99,441.23z M532.6,441.71l-9.229,55.03
	c-0.25,3.02-0.351,5.31-0.31,6.869c-0.141-3-0.24-5.289-0.301-6.869l-8.82-55.03h-12.129l15.39,80.37h11.659l15.4-80.37H532.6z
	 M572.061,441.71H560.4v80.37h11.66V441.71z M621.79,511.21h-19.12v-69.5h-11.66v80.37h30.78V511.21z M651.32,496.55l5.979-36.53
	l5.89,36.53H651.32z M663.65,441.23H651l-15.391,80.649v0.2h11.66l2.44-15.13h15.19l2.43,15.13h11.66L663.65,441.23z"/>
</svg>
