<?xml version="1.0" encoding="UTF-8" standalone="no"?>
<svg xmlns="http://www.w3.org/2000/svg" enable-background="new 0 0 841.89 595.28" viewBox="0 0 535.99902 478" height="478" width="535.99902" y="0px" x="0px" version="1.1">
   <path id="path10" d="m 476.17,373.15 c -0.449,-7.051 -11.01,-12.68 -23.97,-12.68 -12.97,0 -23.53,5.629 -23.979,12.68 H 428.2 v -19.73 h 4.659 l -19.33,-19.27 -19.329,19.27 h 5.12 v 19.26 l -29.35,-20.67 -29.351,20.67 v -14.56 l -13.97,-14.101 H 239.53 l -13.97,14.101 v 14.56 h -0.88 l -34.53,-18.539 v -27.98 h 2.33 l -20.26,-48.87 -20.27,48.87 h 2.33 v 28.119 l -0.46,-0.389 -35,18.789 h -1.34 V 360 h 3.26 L 88.13,327.1 55.52,360 h 3.26 v 12.68 l -9.32,-9.39 H 10.33 l -9.32,9.39 V 477 h 57.77 58.7 58.7 49.38 115.06 58.7 28.88 47.989 0.15 58.551 V 372.68 l -9.32,-9.39 h -39.6 l -9.32,9.39 h -0.461 v 0.471 h -0.019 z" fill="#be1622" clip-rule="evenodd" fill-rule="evenodd" />
   <path id="path12" d="m 1.47,113.25 h 40.8 V 84.86 C 47.37,48.74 81.8,43.58 81.8,43.58 h 45.9 V 29.38 H 84.35 V 11.32 h -5.1 c -64.6,0 -77.78,74.83 -77.78,74.83 z m 85.43,0 h 40.8 V 62.93 H 86.9 Z m 0,-67.09 v 14.19 h 40.8 V 46.16 Z m 0,-19.36 h 40.8 V 11.32 H 86.9 Z M 95.82,8.74 h 22.96 V 2.29 L 117.5,1 H 97.1 L 95.82,2.29 Z M 53.75,113.25 H 76.7 v -6.46 l -1.28,-1.29 h -20.4 l -1.27,1.29 z m -52.28,2.58 v 15.48 H 127.7 v -15.48 z m 0,18.06 v 15.48 H 127.7 V 133.89 Z M 331.71,8.74 h 22.95 V 2.29 L 353.39,1 h -20.4 l -1.28,1.29 z m -42.08,0 h 22.96 V 2.29 L 311.311,1 h -20.4 l -1.28,1.29 v 6.45 z m 85.431,0 H 398.02 V 2.29 L 396.74,1 h -20.4 l -1.279,1.29 z M 279.43,11.32 V 26.8 H 405.67 V 11.32 Z m 0,18.06 V 44.87 H 405.67 V 29.38 Z M 1.47,152.07 v 49.03 h 40.8 v -49.03 z m 85.43,0 v 49.03 h 40.8 v -49.03 z m 191.26,-38.82 v -27.1 c 0,0 -13.18,-74.83 -77.78,-74.83 h -5.1 v 18.06 h -43.35 v 14.2 h 45.9 c 0,0 34.43,5.16 39.53,41.28 v 28.39 z m -85.43,0 V 62.93 h -40.8 v 50.32 z m 0,-67.09 h -40.8 v 14.19 h 40.8 z m 0,-19.36 V 11.32 h -40.8 V 26.8 Z M 183.8,8.74 V 2.29 L 182.53,1 h -20.4 l -1.28,1.29 v 6.45 z m 42.08,104.51 v -6.46 l -1.27,-1.29 h -20.4 l -1.28,1.29 v 6.46 z m 52.28,2.58 H 151.93 v 15.48 h 126.23 z m -43.35,18.06 h -82.88 v 15.48 h 82.88 z M 408.221,113.25 H 449.02 V 84.86 c 5.101,-36.12 39.521,-41.28 39.521,-41.28 h 45.91 v -14.2 h -43.36 V 11.32 h -5.1 c -64.6,0 -77.77,74.83 -77.77,74.83 z M 493.65,26.8 h 40.8 V 11.32 h -40.8 z m 8.92,-18.06 h 22.949 V 2.29 L 524.25,1 h -20.4 l -1.279,1.29 v 6.45 z m -42.08,104.51 h 22.949 v -6.46 l -1.27,-1.29 h -20.4 l -1.279,1.29 z m 0,51.6 h 22.949 v -6.45 l -1.27,-1.29 h -20.4 l -1.279,1.29 z m 42.08,0 h 22.949 v -6.45 l -1.27,-1.29 h -20.4 l -1.279,1.29 z m -94.349,20.76 V 201.1 H 534.45 v -15.49 z m 0,-51.72 v 49.03 h 40.799 v -49.03 z m 82.869,-18.06 h -82.869 v 15.48 h 82.869 z m 43.36,51.6 h -82.88 v 15.49 h 82.88 z M 192.73,151.6 h -40.8 v 49.03 h 40.8 z m 170.86,-0.94 h -40.8 v 49.03 h 40.8 z m 0,-51.61 h -40.8 v 49.03 h 40.8 z m 0,-51.6 h -40.8 v 49.02 h 40.8 z m -126.23,87.38 v 16.77 h -42.08 v 14.19 h 42.08 v 34.84 h 40.8 v -28.39 c 0,0 -2.551,-37.84 -40.8,-37.41 z" fill="#010202" clip-rule="evenodd" fill-rule="evenodd" />
   <path id="path14" d="M 42.01,233.71 H 8.22 c -2.17,0 -3.91,0.59 -5.24,1.77 -1.32,1.18 -1.98,2.5 -1.98,3.96 v 66.6 c 0,1.46 0.66,2.78 1.98,3.96 1.33,1.18 3.07,1.77 5.24,1.77 h 33.79 c 2.24,0 3.95,-0.59 5.11,-1.77 1.16,-1.18 1.74,-2.7 1.74,-4.57 0,-2.029 -0.58,-3.64 -1.74,-4.82 -1.16,-1.18 -2.87,-1.77 -5.11,-1.77 H 15.07 v -20.119 h 18.04 c 2.319,0 4.069,-0.591 5.229,-1.771 1.16,-1.181 1.74,-2.71 1.74,-4.58 0,-2.03 -0.58,-3.63 -1.74,-4.81 -1.16,-1.181 -2.91,-1.771 -5.229,-1.771 H 15.07 V 246.64 h 26.939 c 2.24,0 3.95,-0.591 5.11,-1.771 1.16,-1.181 1.74,-2.7 1.74,-4.57 0,-2.04 -0.58,-3.64 -1.74,-4.82 C 45.96,234.3 44.25,233.71 42.01,233.71 Z m 63.37,55.979 c 2,0 3.65,-0.539 4.93,-1.64 1.28,-1.1 2.24,-2.26 2.89,-3.479 l 13.46,-28.42 v 51.109 c 0,1.461 0.63,2.78 1.87,3.961 1.24,1.18 2.86,1.77 4.87,1.77 2.24,0 4.01,-0.59 5.29,-1.77 1.28,-1.181 1.92,-2.5 1.92,-3.961 v -69.04 c 0,-1.46 -0.64,-2.78 -1.92,-3.96 -1.28,-1.18 -3.05,-1.77 -5.29,-1.77 l -1.92,-0.12 c -2.09,-0.08 -3.81,0.3 -5.18,1.16 -1.36,0.85 -2.44,1.93 -3.24,3.23 l -17.68,36.1 -17.68,-36.1 c -0.72,-1.3 -1.76,-2.34 -3.12,-3.11 -1.37,-0.77 -3.09,-1.16 -5.18,-1.16 h -2.04 c -2.16,0 -3.91,0.59 -5.23,1.77 -1.32,1.18 -1.99,2.5 -1.99,3.96 v 69.04 c 0,1.461 0.67,2.78 1.99,3.961 1.32,1.18 3.07,1.77 5.23,1.77 2.08,0 3.75,-0.59 4.99,-1.77 1.24,-1.181 1.86,-2.5 1.86,-3.961 V 256.15 l 13.35,28.42 c 0.72,1.22 1.73,2.38 3.01,3.479 1.28,1.101 2.89,1.64 4.81,1.64 z M 215.35,245.91 h 8.9 c 5.37,0 9.26,1.199 11.66,3.59 2.41,2.4 3.61,5.35 3.61,8.85 v 2.801 c 0,1.47 -0.3,2.89 -0.9,4.27 -0.6,1.38 -1.53,2.6 -2.77,3.66 -1.24,1.061 -2.82,1.91 -4.75,2.561 -1.92,0.649 -4.21,0.979 -6.85,0.979 h -8.9 z m -14.07,-6.47 v 67.21 c 0,1.459 0.66,2.89 1.98,4.27 1.32,1.38 3.07,2.07 5.23,2.07 2.09,0 3.75,-0.59 4.99,-1.77 1.25,-1.181 1.87,-2.5 1.87,-3.961 v -22.93 h 8.9 c 5.37,0 9.9,-0.67 13.59,-2.01 3.68,-1.35 6.69,-3.12 9.01,-5.311 2.33,-2.199 4.01,-4.72 5.06,-7.56 1.04,-2.851 1.56,-5.82 1.56,-8.91 v -1.34 c 0,-3.58 -0.56,-6.91 -1.68,-10 -1.13,-3.091 -2.89,-5.79 -5.3,-8.11 -2.4,-2.32 -5.45,-4.13 -9.14,-5.43 -3.68,-1.3 -8.05,-1.95 -13.1,-1.95 h -15.76 c -2.16,0 -3.91,0.59 -5.23,1.77 -1.32,1.182 -1.98,2.502 -1.98,3.962 z m 114.65,-5.73 h -33.8 c -2.159,0 -3.899,0.59 -5.229,1.77 -1.32,1.18 -1.98,2.5 -1.98,3.96 v 66.6 c 0,1.46 0.66,2.78 1.98,3.96 1.33,1.18 3.07,1.77 5.229,1.77 h 33.8 c 2.24,0 3.94,-0.59 5.11,-1.77 1.16,-1.18 1.739,-2.7 1.739,-4.57 0,-2.029 -0.579,-3.64 -1.739,-4.82 -1.17,-1.18 -2.87,-1.77 -5.11,-1.77 h -26.94 v -20.119 h 18.039 c 2.32,0 4.07,-0.591 5.23,-1.771 1.16,-1.181 1.74,-2.71 1.74,-4.58 0,-2.03 -0.58,-3.63 -1.74,-4.81 -1.16,-1.181 -2.91,-1.771 -5.23,-1.771 H 288.99 V 246.64 h 26.939 c 2.24,0 3.94,-0.591 5.11,-1.771 1.16,-1.181 1.739,-2.7 1.739,-4.57 0,-2.04 -0.579,-3.64 -1.739,-4.82 -1.169,-1.179 -2.869,-1.769 -5.109,-1.769 z m 26.16,28.42 v 21.22 c 0,3.82 0.54,7.42 1.62,10.801 1.08,3.369 2.67,6.379 4.75,9.02 2.09,2.641 4.67,4.82 7.761,6.53 3.079,1.71 6.629,2.72 10.639,3.05 0.881,1.62 1.42,3.05 1.621,4.27 0.199,1.221 0.14,2.4 -0.181,3.53 -0.239,0.9 -0.64,1.57 -1.2,2.021 -0.56,0.439 -1.26,0.689 -2.1,0.729 -0.85,0.04 -1.77,-0.079 -2.77,-0.37 -1,-0.279 -2.021,-0.67 -3.07,-1.16 -1.36,-0.569 -2.52,-0.629 -3.48,-0.18 -0.97,0.45 -1.65,1.141 -2.05,2.07 -0.399,0.939 -0.46,1.98 -0.18,3.109 0.28,1.141 0.979,2.08 2.11,2.811 2.239,1.38 4.629,2.17 7.149,2.38 2.53,0.2 4.851,-0.08 6.979,-0.86 2.121,-0.77 3.92,-1.97 5.41,-3.59 1.48,-1.63 2.301,-3.58 2.461,-5.859 0.16,-1.631 0.02,-3.19 -0.42,-4.7 -0.44,-1.5 -1.021,-2.94 -1.74,-4.32 4.97,-0.659 9,-2.18 12.08,-4.58 3.09,-2.399 4.629,-5.06 4.629,-7.989 0,-1.381 -0.379,-2.541 -1.139,-3.471 -0.761,-0.939 -1.941,-1.41 -3.551,-1.41 -0.72,0 -1.359,0.041 -1.92,0.12 -0.561,0.091 -1.1,0.229 -1.62,0.431 -0.521,0.209 -1.11,0.49 -1.75,0.859 -0.64,0.36 -1.399,0.83 -2.28,1.4 -1.279,0.73 -2.629,1.279 -4.029,1.65 -1.4,0.359 -3.271,0.539 -5.59,0.539 -3.851,0 -7.16,-1.279 -9.92,-3.84 -2.771,-2.561 -4.15,-6.561 -4.15,-12.01 V 261.27 c 0,-5.439 1.38,-9.47 4.15,-12.069 2.76,-2.601 6.069,-3.9 9.92,-3.9 2.319,0 4.229,0.28 5.709,0.851 1.48,0.57 2.871,1.26 4.15,2.07 1.36,0.899 2.561,1.529 3.61,1.889 1.04,0.371 2.239,0.551 3.6,0.551 1.29,0 2.41,-0.439 3.37,-1.34 0.96,-0.891 1.439,-2.15 1.439,-3.78 0,-1.71 -0.539,-3.33 -1.619,-4.88 -1.08,-1.54 -2.61,-2.93 -4.57,-4.15 -1.96,-1.22 -4.27,-2.19 -6.91,-2.92 -2.65,-0.74 -5.539,-1.1 -8.66,-1.1 -4.57,0 -8.619,0.79 -12.149,2.38 -3.53,1.58 -6.49,3.72 -8.9,6.399 -2.399,2.681 -4.21,5.84 -5.409,9.451 -1.201,3.618 -1.8,7.419 -1.8,11.408 z m 85.24,20.49 9.5,-30.25 9.26,30.25 z m 40.41,22.441 -23.09,-67.451 c -0.4,-1.38 -1.32,-2.58 -2.771,-3.6 -1.44,-1.01 -3.12,-1.52 -5.05,-1.52 -2,0 -3.7,0.51 -5.109,1.52 -1.4,1.02 -2.301,2.22 -2.701,3.6 l -23.569,67.58 c -0.41,1.381 -0.14,2.82 0.78,4.33 0.92,1.5 2.459,2.541 4.629,3.11 1.92,0.479 3.67,0.32 5.23,-0.489 1.561,-0.82 2.58,-1.91 3.07,-3.301 l 4.439,-14.27 h 26.221 l 4.33,14.15 c 0.399,1.379 1.379,2.479 2.949,3.299 1.561,0.811 3.34,0.971 5.351,0.48 2.159,-0.57 3.68,-1.6 4.569,-3.109 0.882,-1.499 1.123,-2.94 0.722,-4.329 z m 42.369,7.929 c 7.771,0 13.871,-1.971 18.281,-5.91 4.409,-3.95 6.609,-9.34 6.609,-16.17 0,-4.391 -0.859,-7.96 -2.58,-10.73 -1.73,-2.76 -3.891,-5.06 -6.5,-6.89 -2.6,-1.83 -5.43,-3.36 -8.48,-4.58 -3.039,-1.21 -5.869,-2.431 -8.479,-3.649 -2.601,-1.221 -4.771,-2.61 -6.489,-4.15 -1.721,-1.551 -2.58,-3.62 -2.58,-6.221 0,-3.01 0.92,-5.31 2.76,-6.89 1.84,-1.59 4.209,-2.38 7.1,-2.38 3.359,0 6.05,0.53 8.05,1.58 2.011,1.061 3.49,2 4.45,2.811 0.88,0.729 1.83,1.379 2.83,1.949 1,0.57 2.14,0.85 3.43,0.85 2.16,0 3.7,-0.58 4.631,-1.76 0.92,-1.18 1.379,-2.709 1.379,-4.58 0,-1.049 -0.52,-2.379 -1.56,-3.959 -1.05,-1.59 -2.59,-3.11 -4.63,-4.581 -2.051,-1.46 -4.57,-2.7 -7.58,-3.72 -3.01,-1.01 -6.51,-1.52 -10.52,-1.52 -3.851,0 -7.301,0.55 -10.34,1.65 -3.051,1.09 -5.621,2.66 -7.701,4.69 -2.09,2.029 -3.689,4.43 -4.81,7.199 -1.12,2.761 -1.68,5.851 -1.68,9.271 0,4.229 0.86,7.7 2.579,10.431 1.721,2.72 3.91,5 6.551,6.83 2.65,1.83 5.48,3.35 8.48,4.569 3.01,1.22 5.84,2.479 8.479,3.78 2.649,1.3 4.83,2.79 6.55,4.449 1.73,1.67 2.59,3.811 2.59,6.41 0,3.09 -0.92,5.34 -2.77,6.771 -1.84,1.42 -4.37,2.13 -7.57,2.13 -2.811,0 -5.449,-0.51 -7.939,-1.52 -2.48,-1.021 -4.41,-2.18 -5.771,-3.48 -0.88,-0.811 -1.84,-1.561 -2.89,-2.25 -1.04,-0.699 -2.24,-1.08 -3.6,-1.16 -4.17,0 -6.261,1.91 -6.261,5.73 0,1.71 0.479,3.25 1.44,4.63 0.97,1.39 2.209,2.63 3.729,3.72 1.53,1.1 3.229,2.061 5.11,2.87 1.89,0.81 3.79,1.5 5.72,2.069 1.92,0.57 3.761,1 5.53,1.281 1.763,0.29 3.243,0.43 4.452,0.43 z" fill="#098b81" clip-rule="evenodd" fill-rule="evenodd" />
   <path id="path16" d="m 48.74,436.58 c 0,-2.689 -0.86,-4.85 -2.56,-6.49 L 22.62,407.529 V 392.63 h 14.46 v 15.13 h 11.66 v -18.78 c 0,-4.101 -2.09,-6.19 -6.29,-6.271 H 17.26 c -4.2,0.08 -6.3,2.2 -6.3,6.38 v 18.939 c 0,2.591 0.85,4.711 2.57,6.381 l 23.55,22.67 v 16.07 H 22.62 V 436.608 H 10.96 V 456.7 c 0,4.18 2.1,6.31 6.3,6.38 h 25.19 c 4.2,-0.07 6.29,-2.2 6.29,-6.38 z m 30.61,16.1 v -59.57 h 16.33 v 59.57 z m 27.99,-63.59 c -0.08,-4.18 -2.18,-6.3 -6.3,-6.38 H 73.99 c -4.13,0.08 -6.23,2.2 -6.3,6.38 v 67.61 c 0.07,4.18 2.17,6.31 6.3,6.38 h 27.05 c 4.12,-0.07 6.22,-2.2 6.3,-6.38 z m 30.6,64.06 V 426.2 h 9.91 l 5.49,3.93 v 23.021 h -15.4 z m 9.71,-36.88 h -9.71 v -23.64 h 15.45 v 19.521 z m 17.81,16.08 c 0,-2.97 -0.89,-5.3 -2.69,-7 -0.23,-0.25 -2.33,-1.699 -6.28,-4.35 3.82,-2.55 5.84,-3.939 6.07,-4.16 1.66,-1.59 2.5,-3.83 2.5,-6.72 v -21.03 c -0.09,-4.18 -2.12,-6.3 -6.1,-6.38 h -32.68 v 80.37 h 32.89 c 4.11,-0.07 6.21,-2.2 6.29,-6.38 z m 51.13,19.86 H 195.6 v -25.06 h 18.19 v -10.4 H 195.6 v -23.17 h 20.53 v -10.87 h -32.19 v 80.37 h 32.65 z m 71.48,-78.87 -8.84,-13.77 h -14.48 v 0.459 l 14.79,13.721 h 8.53 z m -10.41,64.21 5.97,-36.53 5.899,36.53 z m 12.33,-55.32 h -12.65 l -15.4,80.649 v 0.2 h 11.669 l 2.44,-15.13 h 15.19 l 2.42,15.13 h 11.66 z m 89.61,0.48 -9.229,55.03 c -0.25,3.02 -0.351,5.31 -0.31,6.869 -0.141,-3 -0.24,-5.289 -0.301,-6.869 l -8.82,-55.03 h -12.129 l 15.39,80.37 h 11.659 l 15.4,-80.37 z m 39.461,0 H 407.4 v 80.37 h 11.66 v -80.37 z m 49.729,69.5 h -19.12 v -69.5 h -11.66 v 80.37 h 30.78 z m 29.53,-14.66 5.979,-36.53 5.89,36.53 z m 12.33,-55.32 H 498 l -15.391,80.649 v 0.2 h 11.66 l 2.44,-15.13 h 15.19 l 2.43,15.13 h 11.66 z" fill="#ffffff" clip-rule="evenodd" fill-rule="evenodd" />
</svg>
